<svg xmlns="http://www.w3.org/2000/svg" xmlns:xlink="http://www.w3.org/1999/xlink" version="1.1" viewBox="0 0 222 180.9" xml:space="preserve">
    <g>
        <path fill="#0445A5" d="M220.5,138H1.5c-0.8,0-1.5-0.7-1.5-1.5s0.7-1.5,1.5-1.5h219c0.8,0,1.5,0.7,1.5,1.5S221.3,138,220.5,138z"/>
        <path fill="#5DB0E1" d="M159.4,151.6H57.7c-2.3,0-4.2-1.9-4.2-4.2V75.8c0-2.3,1.9-4.2,4.2-4.2h101.6c2.3,0,4.2,1.9,4.2,4.2v71.6    C163.6,149.7,161.7,151.6,159.4,151.6z"/>
        <path fill="#E1EEF6" d="M181.9,180.9H76.1c-0.4,0-0.7-0.2-0.9-0.5l-20.5-28.3c-0.3-0.4-0.3-1.1,0.1-1.4c0.2-0.2,0.5-0.3,0.8-0.2    h105.9c0.4,0,0.7,0.2,0.9,0.5l20.5,28.3c0.3,0.4,0.3,1.1-0.1,1.4C182.5,180.9,182.2,180.9,181.9,180.9z"/>
        <path fill="#E1EEF6" d="M134.5,1.5h-52c-3.9,0-7,3.1-7,7v62.1l66,0.2V8.5C141.5,4.6,138.4,1.5,134.5,1.5z M129,70.7l-41-0.1v-54    c0-1.6,1.3-2.9,2.9-2.9l0,0h35.2c1.6,0,2.9,1.3,2.9,2.9V70.7z"/>
        <path fill="#0445A5" d="M129,72.2c-0.8,0-1.5-0.7-1.5-1.5V16.5c0-0.8-0.6-1.4-1.4-1.4l0,0H90.9c-0.8,0-1.4,0.6-1.4,1.4c0,0,0,0,0,0    v54c0,0.8-0.7,1.5-1.5,1.5s-1.5-0.7-1.5-1.5v-54c0-2.4,2-4.4,4.4-4.4l0,0h35.2c2.4,0,4.4,2,4.4,4.4v54.1    C130.5,71.6,129.8,72.2,129,72.2z"/>
        <path fill="#0445A5" d="M87.5,67h-12c-0.8,0-1.5-0.7-1.5-1.5s0.7-1.5,1.5-1.5h12c0.8,0,1.5,0.7,1.5,1.5S88.3,67,87.5,67z"/>
        <path fill="#0445A5" d="M87.5,62h-12c-0.8,0-1.5-0.7-1.5-1.5s0.7-1.5,1.5-1.5h12c0.8,0,1.5,0.7,1.5,1.5S88.3,62,87.5,62z"/>
        <path fill="#0445A5" d="M87.5,54h-12c-0.8,0-1.5-0.7-1.5-1.5s0.7-1.5,1.5-1.5h12c0.8,0,1.5,0.7,1.5,1.5S88.3,54,87.5,54z"/>
        <path fill="#0445A5" d="M141.5,67h-12c-0.8,0-1.5-0.7-1.5-1.5s0.7-1.5,1.5-1.5h12c0.8,0,1.5,0.7,1.5,1.5S142.3,67,141.5,67z"/>
        <path fill="#0445A5" d="M141.5,62h-12c-0.8,0-1.5-0.7-1.5-1.5s0.7-1.5,1.5-1.5h12c0.8,0,1.5,0.7,1.5,1.5S142.3,62,141.5,62z"/>
        <path fill="#0445A5" d="M141.5,54h-12c-0.8,0-1.5-0.7-1.5-1.5s0.7-1.5,1.5-1.5h12c0.8,0,1.5,0.7,1.5,1.5S142.3,54,141.5,54z"/>
        <path fill="#0445A5" d="M141.5,72.4c-0.8,0-1.5-0.7-1.5-1.5V8.5c0-3-2.5-5.5-5.5-5.5l0,0h-52c-3,0-5.5,2.4-5.5,5.5c0,0,0,0,0,0v62.2    c0,0.8-0.7,1.5-1.5,1.5S74,71.5,74,70.6V8.5C74,3.8,77.8,0,82.5,0h52c4.7,0,8.5,3.8,8.5,8.5c0,0,0,0,0,0v62.4    C143,71.7,142.3,72.4,141.5,72.4z"/>
        <path fill="#0445A5" d="M158.8,153H58.2c-3.4,0-6.2-2.8-6.2-6.2V76.2c0-3.4,2.8-6.2,6.2-6.2h100.7c3.4,0,6.2,2.8,6.2,6.2v70.7    C165,150.2,162.2,153,158.8,153z M58.2,73c-1.8,0-3.2,1.4-3.2,3.2v70.7c0,1.8,1.4,3.2,3.2,3.2h100.7c1.8,0,3.2-1.4,3.2-3.2V76.2    c0-1.8-1.4-3.2-3.2-3.2H58.2z"/>
        <circle fill="#F7B318" cx="109.2" cy="95.4" r="9"/>
        <polygon fill="#0445A5" points="124.2,106.3 115.3,106.4 109.3,114.4 103.3,106.4 94.3,106.5 104.9,120.4 94.5,134.5 103.5,134.4     109.4,126.4 115.5,134.3 124.5,134.3 113.9,120.4   "/>
    </g>
</svg>
