<svg xmlns="http://www.w3.org/2000/svg" viewBox="1158.07 362 9.62 9.133"><path d="M1163.524 365.974q.755-.346 1.436-.7a12.029 12.029 0 0 1 1.09-.511 1.873 1.873 0 0 1 .647-.165 1 1 0 0 1 .7.272.885.885 0 0 1 .3.675.953.953 0 0 1-.148.482.715.715 0 0 1-.306.318 14.858 14.858 0 0 1-3.292.857q.323.3.8.8t.5.533q.176.244.488.6a4.384 4.384 0 0 1 .437.568.942.942 0 0 1 .119.494.891.891 0 0 1-.278.647.971.971 0 0 1-.721.278q-.443 0-.993-.681a14.406 14.406 0 0 1-1.419-2.457q-.88 1.6-1.18 2.111a3.513 3.513 0 0 1-.568.772.9.9 0 0 1-.636.261.948.948 0 0 1-.715-.3.9.9 0 0 1-.284-.63.811.811 0 0 1 .113-.477 17.5 17.5 0 0 1 2.225-2.514q-.97-.153-1.737-.335a10.811 10.811 0 0 1-1.623-.568.721.721 0 0 1-.272-.318.982.982 0 0 1-.131-.46.885.885 0 0 1 .3-.675.97.97 0 0 1 .675-.272 1.952 1.952 0 0 1 .692.17q.414.17 1.061.488l1.47.726a16.262 16.262 0 0 1-.25-1.7q-.1-.97-.1-1.249a1.072 1.072 0 0 1 .272-.738.9.9 0 0 1 .7-.284.88.88 0 0 1 .687.306 1.186 1.186 0 0 1 .272.817q0 .142-.04.568t-.114 1q-.086.553-.177 1.291z" fill="#f66"/></svg>