<svg xmlns="http://www.w3.org/2000/svg" viewBox="0 0 24 23.99"><path d="M0 21.17a2.82 2.82 0 0 1 2.82-2.82h.36l4-9.06A2.82 2.82 0 1 1 11 9l3.21 5.08A2.82 2.82 0 0 1 15.4 14l4-9.07a2.81 2.81 0 1 1 1.41.65l-3.93 9a2.82 2.82 0 1 1-3.88.36L9.73 9.85a2.82 2.82 0 0 1-1.17.09l-4 9A2.82 2.82 0 1 1 0 21.17zm1.55 0a1.27 1.27 0 1 0 1.27-1.27 1.27 1.27 0 0 0-1.27 1.27zm12.26-4.37a1.26 1.26 0 1 0 .37-.9 1.27 1.27 0 0 0-.37.9zM7.67 7.14a1.27 1.27 0 1 0 1.27-1.27 1.27 1.27 0 0 0-1.27 1.27zm12.26-4.35a1.27 1.27 0 1 0 1.27-1.26 1.27 1.27 0 0 0-1.27 1.26z" fill="#26384e"/></svg>