<svg xmlns="http://www.w3.org/2000/svg" viewBox="0 0 18 18"><path d="M15.3 1.75h-1.24V.62a.64.64 0 0 0-.67-.62.62.62 0 0 0-.62.62v1.13H5.23V.62A.62.62 0 0 0 4.61 0 .59.59 0 0 0 4 .62v1.13H2.7A2.7 2.7 0 0 0 0 4.44V15.3A2.66 2.66 0 0 0 2.7 18h12.6a2.7 2.7 0 0 0 2.7-2.7V4.44a2.7 2.7 0 0 0-2.7-2.69zm1.46 13.55a1.45 1.45 0 0 1-1.46 1.46H2.7a1.45 1.45 0 0 1-1.46-1.46V4.44A1.45 1.45 0 0 1 2.7 3H4v.56a.62.62 0 0 0 1.24 0V3h7.54v.56a.62.62 0 0 0 .62.62.58.58 0 0 0 .67-.62V3h1.29a1.45 1.45 0 0 1 1.46 1.46V15.3zM5.63 9.56H4.5A.53.53 0 0 1 3.94 9V7.88a.53.53 0 0 1 .56-.56h1.13a.53.53 0 0 1 .56.56V9a.56.56 0 0 1-.56.56zm4 0H8.49A.53.53 0 0 1 7.93 9V7.88a.53.53 0 0 1 .56-.56h1.13a.53.53 0 0 1 .56.56V9a.56.56 0 0 1-.56.56zm3.94 0h-1.14a.53.53 0 0 1-.56-.56V7.88a.53.53 0 0 1 .56-.56h1.12a.53.53 0 0 1 .56.56V9a.56.56 0 0 1-.56.56zM5.63 13.5H4.5a.53.53 0 0 1-.56-.56v-1.13a.53.53 0 0 1 .56-.56h1.13a.53.53 0 0 1 .56.56v1.12a.56.56 0 0 1-.56.57zm4 0H8.49a.53.53 0 0 1-.56-.56v-1.13a.53.53 0 0 1 .56-.56h1.13a.53.53 0 0 1 .56.56v1.12a.56.56 0 0 1-.56.57zm3.94 0h-1.14a.53.53 0 0 1-.56-.56v-1.13a.53.53 0 0 1 .56-.56h1.12a.53.53 0 0 1 .56.56v1.12a.56.56 0 0 1-.56.56z"/></svg>