<svg xmlns="http://www.w3.org/2000/svg" viewBox="0 0 18 18"><path d="M16.92 14.41c-1.35-.9-2.53-1.63-3.6-2.24-.17 0-.17 0-.28.17a8.37 8.37 0 0 0-1.63.73l-.62.45-.62-.45c-.73-.62-1.63-1.35-2.7-2.41a24.9 24.9 0 0 1-2.52-2.87l-.45-.61.28-.62c.45-.73.73-1.35.9-1.51a.39.39 0 0 1 .17-.28A18.16 18.16 0 0 0 3.6 1.18h-.28A8.44 8.44 0 0 0 2 2.36c-.45.45-.73.73-.73.9 0 2.24 1.8 4.93 5.23 8.36s6.13 5.1 8.38 5.21c.17 0 .45-.28.9-.73a8.43 8.43 0 0 0 1.18-1.35zm1.07 0a1.61 1.61 0 0 1-.28 1.07 5.32 5.32 0 0 1-.62.73 11.45 11.45 0 0 1-1.18 1.18c-.62.45-.73.62-1.18.62-2.53 0-5.57-2-9.17-5.55S.17 5.72 0 3.31A3.17 3.17 0 0 1 .73 2 7.6 7.6 0 0 1 1.91.79c.28-.28.62-.45.73-.62.28 0 .45-.17.9-.17a1.38 1.38 0 0 1 .9.45c.62.73 1.35 2 2.42 3.59.28.45.17.9-.17 1.51a12.94 12.94 0 0 0-.9 1.51 18.24 18.24 0 0 0 2.42 2.7c1.07 1.07 2 1.79 2.7 2.41.9-.45 1.35-.73 1.63-.9a1.72 1.72 0 0 1 .9-.17.87.87 0 0 1 .62.17c1.07.62 2.25 1.51 3.6 2.41a.76.76 0 0 1 .34.73z"/></svg>