<svg xmlns="http://www.w3.org/2000/svg" viewBox="0 0 24 23.74"><path d="M1.57 23.74A1.57 1.57 0 0 1 0 22.16v-3.79a1.57 1.57 0 0 1 1.57-1.57h20.88A1.57 1.57 0 0 1 24 18.37v3.79a1.57 1.57 0 0 1-1.57 1.57zm20.87-1.55v-3.82h-11v3.84zm-12.55 0v-3.84H8.11v3.84zm-3.34 0v-3.84H4.77v3.84zm-5-3.82v3.81h1.67v-3.83H1.56zm16.91 1.86a1.15 1.15 0 1 1 1.15 1.14 1.15 1.15 0 0 1-1.15-1.14zM1.57 15.34A1.57 1.57 0 0 1 0 13.76V10a1.57 1.57 0 0 1 1.57-1.6h20.88A1.55 1.55 0 0 1 24 10v3.79a1.57 1.57 0 0 1-1.57 1.57zm20.87-1.55V9.97h-11v3.84zm-12.55 0V9.95H8.11v3.84zm-3.34 0V9.95H4.77v3.84zm-5-3.79v3.81h1.67V9.95H1.56l-.01.05zm16.91 1.88A1.15 1.15 0 1 1 19.61 13a1.15 1.15 0 0 1-1.15-1.14zM1.57 6.94A1.57 1.57 0 0 1 0 5.37v-3.8A1.57 1.57 0 0 1 1.57 0h20.88A1.55 1.55 0 0 1 24 1.57v3.8a1.57 1.57 0 0 1-1.57 1.57zm20.88-1.55V1.57h-11v3.82zm-12.55 0V1.55H8.11v3.84zm-3.34 0V1.55H4.77v3.84zm-5-3.82v3.81h1.66V1.55H1.56zm16.91 2a1.15 1.15 0 1 1 1.15 1.15 1.15 1.15 0 0 1-1.16-1.19z"/></svg>