<svg xmlns="http://www.w3.org/2000/svg" viewBox="0 0 23.98 24"><path d="M1.34 24A1.33 1.33 0 0 1 0 22.66V12a1.42 1.42 0 0 1 1.34-1.5h9.33A1.45 1.45 0 0 1 12 12v10.66A1.33 1.33 0 0 1 10.67 24zm9.09-1.57V12h-3.8v10.43zm-8.9 0h3.55V12H1.53zM14.22 24A1.26 1.26 0 0 1 13 22.69V11.93a1.35 1.35 0 0 1 1.27-1.42h8.49A1.36 1.36 0 0 1 24 11.93v10.76A1.26 1.26 0 0 1 22.71 24zm.26-1.53h7.94v-4.89h-7.94zM22.43 16v-4h-7.95v4zM1.67 9.54A1.67 1.67 0 0 1 0 7.88V1.67A1.67 1.67 0 0 1 1.67 0h20.64A1.66 1.66 0 0 1 24 1.67v6.2a1.67 1.67 0 0 1-1.67 1.67zm-.12-7.87v6.21a.11.11 0 0 0 .12.12h20.64a.11.11 0 0 0 .12-.12V1.67a.11.11 0 0 0-.12-.12H1.67a.11.11 0 0 0-.12.12z"/></svg>