<svg xmlns="http://www.w3.org/2000/svg" viewBox="0 0 24 24"><path d="M6.7 22.74l-.7-.36-.39-.24-.24-.14a12.07 12.07 0 0 1-5.32-9.23H0v-1.53A12.07 12.07 0 0 1 5.35 2l.26-.15L6 1.6l.67-.38a12.12 12.12 0 0 1 10.66 0l.22.12.45.26.7.4a12.07 12.07 0 0 1 5.3 9.21v1.55A12.07 12.07 0 0 1 18.65 22l-.65.4-.59.31h-.08A12.2 12.2 0 0 1 12 24a11.71 11.71 0 0 1-5.3-1.26zm.8-1.36a10.25 10.25 0 0 0 4.51 1 10.59 10.59 0 0 0 4.53-1l-2.22-3.84a6 6 0 0 1-4.63 0l-1.62 2.81zm-1.36-.74l2.21-3.84a6 6 0 0 1-2.31-4H1.6a10.49 10.49 0 0 0 4.53 7.87zm9.54-3.86l2.22 3.84a10.49 10.49 0 0 0 4.53-7.85H18a5.94 5.94 0 0 1-2.33 4zM12 16.49a4.57 4.57 0 0 0 1.86-.4l.38-.22a4.47 4.47 0 0 0 0-7.75L14 8a4.58 4.58 0 0 0-2-.47 4.63 4.63 0 0 0-2.24.6l-.26.15a4.52 4.52 0 0 0-2 3.28V12a4.52 4.52 0 0 0 2.24 3.89l.46.26a4.56 4.56 0 0 0 1.8.34zm6-5.27h4.44a10.49 10.49 0 0 0-4.51-7.86l-2.24 3.83A6 6 0 0 1 18 11.22zm-16.39 0H6a6.14 6.14 0 0 1 2.31-4l-2.13-3.8v-.08a10.42 10.42 0 0 0-4.58 7.88zm12.7-4.82l2.22-3.84a10.52 10.52 0 0 0-9.07 0l2.23 3.83A6.45 6.45 0 0 1 12 5.94a6.35 6.35 0 0 1 2.31.46z"/></svg>