<svg xmlns="http://www.w3.org/2000/svg" viewBox="0 0 24 24.52"><path d="M10.33 24.28a.77.77 0 0 1 0-1.1l.55-.55h-5a4.21 4.21 0 0 1-4.2-4.2V13a.77.77 0 0 1 .77-.77.79.79 0 0 1 .77.77v5.49a2.66 2.66 0 0 0 2.65 2.65H11l-.62-.62a.78.78 0 0 1 1.1-1.1l1.5 1.5a1.35 1.35 0 0 1 0 1.91l-1.5 1.5a.76.76 0 0 1-.55.24.72.72 0 0 1-.6-.29zm4.13-4.82a4.77 4.77 0 1 1 1.4 3.38 4.77 4.77 0 0 1-1.4-3.38zm1.55 0a3.21 3.21 0 1 0 .94-2.28 3.22 3.22 0 0 0-.95 2.28zm4.82-7.85V6.13a2.66 2.66 0 0 0-2.65-2.65h-5.06l.57.57a.77.77 0 0 1 0 1.1.82.82 0 0 1-.55.24.72.72 0 0 1-.55-.24l-1.5-1.5a1.35 1.35 0 0 1 0-1.91L12.6.23a.77.77 0 0 1 1.1 0 .77.77 0 0 1 0 1.1l-.62.62h5.11a4.21 4.21 0 0 1 4.2 4.2v5.49a.79.79 0 0 1-.79.74.77.77 0 0 1-.76-.76zM0 5.05a4.77 4.77 0 1 1 1.4 3.38A4.77 4.77 0 0 1 0 5.05zm4.77 3.22a3.2 3.2 0 1 0-2.28-.94 3.22 3.22 0 0 0 2.28.94z"/></svg>