<svg xmlns="http://www.w3.org/2000/svg" viewBox="0 0 18 18"><path d="M15.94 3A2.06 2.06 0 0 0 15 1.52v-.06l-.11-.06a1.57 1.57 0 0 0-.51-.06 1.54 1.54 0 0 0-1.13.39C11.59 2.87 10.46 2.81 9 1.52A6.47 6.47 0 0 0 4.81 0 6.41 6.41 0 0 0 1 1.29a2.27 2.27 0 0 0-1 1.92v13a1.78 1.78 0 0 0 .51 1.29 1.58 1.58 0 0 0 1.13.5h.11c.45 0 1.58-.22 1.58-1.86v-3.88a.61.61 0 0 1 .45-.56h.12a2.65 2.65 0 0 1 1-.17 2.78 2.78 0 0 1 2.09.9 6 6 0 0 0 4.24 1.69 6.11 6.11 0 0 0 4-1.46A2.43 2.43 0 0 0 16 11c0-2.64 0-5.34-.06-8zM2.15 12.54a18.07 18.07 0 0 1 0 2.47v1.12c0 .67-.17.67-.4.67H1.7a.43.43 0 0 1-.28-.11c-.11-.11-.11-.28-.11-.51v-13a1 1 0 0 1 .45-1 5 5 0 0 1 3.1-1A5 5 0 0 1 8.2 2.42c1.92 1.69 3.62 1.74 5.77.28a.64.64 0 0 1 .45-.17h.11a.67.67 0 0 1 .28.51c.06 2.59.06 5.29 0 7.87a1.23 1.23 0 0 1-.45.79 4.89 4.89 0 0 1-3.17 1.18 5 5 0 0 1-3.39-1.35 4.25 4.25 0 0 0-2.94-1.24 3.33 3.33 0 0 0-1.3.22 1.75 1.75 0 0 0-1.41 1.69q-.08.25 0 .34z"/></svg>