<svg xmlns="http://www.w3.org/2000/svg" viewBox="0 0 40 40"><g data-name="Layer 2"><g data-name="Layer 1"><g data-name="Group 2459"><path data-name="Path 2866" class="cls-2" d="M28.36 13.29a.44.44 0 0 1 .14.38.89.89 0 0 1-.14.51.74.74 0 0 1-.55.25h-1l-1.52 14.3a1.11 1.11 0 0 1-.41.89A1.31 1.31 0 0 1 24 30h-8.4a1.3 1.3 0 0 1-1-.38 1.11 1.11 0 0 1-.41-.89L12.65 14.3h-1a1.08 1.08 0 0 1-.55-.25c-.14 0-.14-.25-.14-.38a.44.44 0 0 1 .14-.38c.14-.13.28-.13.55-.13h4.69v-1.77a1.37 1.37 0 0 1 .41-1 1.65 1.65 0 0 1 1.1-.38h3.58a2 2 0 0 1 1.24.38 1 1 0 0 1 .41 1V13h4.68a.74.74 0 0 1 .6.29zm-2.76 1H13.89l1.51 14.18v.13h8.41zM17.75 13h4v-1.61a.28.28 0 0 0-.28-.25h-3.58c-.14 0-.14.13-.14.25z"/><path data-name="Rectangle 2311" class="cls-2" d="M20.42 26.14l1.22-9.93a.63.63 0 0 1 .7-.54.63.63 0 0 1 .54.7l-1.22 9.93a.62.62 0 0 1-.7.54.62.62 0 0 1-.54-.7z"/><path data-name="Rectangle 2312" class="cls-2" d="M17.67 26.29l-1-9.95a.63.63 0 0 1 .56-.69.63.63 0 0 1 .69.56l1 9.95a.62.62 0 0 1-.56.69.62.62 0 0 1-.69-.56z"/></g></g></g></svg>