<svg xmlns="http://www.w3.org/2000/svg" viewBox="0 0 24 24"><defs><mask id="a" x="0" y="0" width="24" height="24" maskUnits="userSpaceOnUse"><path d="M9 0L.56 4.76l8.53 4.75 8.44-4.7zm1.12 10.08l-.67.37v.4L9.53 20 18 15.21V5.69zm-1.69.2l-.36-.2L0 5.59v9.62L8.51 20l-.08-9z" fill="#fff" transform="translate(3 2)"/></mask></defs><path d="M12 2L3.56 6.76l8.53 4.75 8.44-4.7zm1.12 10.08l-.67.37v.4l.08 9.15L21 17.21V7.69zm-1.69.2l-.36-.2L3 7.59v9.62L11.51 22l-.08-9z" fill="#183a63"/><g mask="url(#a)"><path fill="#183a63" d="M0 0h24v24H0z"/></g></svg>