<svg xmlns="http://www.w3.org/2000/svg" viewBox="0 0 40 40"><g data-name="Layer 2"><g data-name="Layer 1"><g data-name="Group 1652"><path data-name="Path 2118" class="cls-2" d="M19.91 31a10.57 10.57 0 0 1-7.82-3.27A10.41 10.41 0 0 1 9 19.91a10.18 10.18 0 0 1 3.27-7.64A10.47 10.47 0 0 1 19.91 9a10.87 10.87 0 0 1 7.82 3.27A10.57 10.57 0 0 1 31 20.09a10.57 10.57 0 0 1-3.27 7.82A10.41 10.41 0 0 1 19.91 31zm0-1.45a9 9 0 0 0 6.73-2.73 9.34 9.34 0 0 0 2.73-6.73 9.34 9.34 0 0 0-2.73-6.73 9.2 9.2 0 0 0-6.73-2.91 9 9 0 0 0-6.73 2.73 9.34 9.34 0 0 0-2.73 6.73 9.34 9.34 0 0 0 2.73 6.73 9.51 9.51 0 0 0 6.73 2.91z"/><path data-name="Path 2119" class="cls-2" d="M15.91 17a2.93 2.93 0 0 1 .54-1.64 4.2 4.2 0 0 1 1.27-1.27 3.88 3.88 0 0 1 2.18-.55 6.54 6.54 0 0 1 2 .36 10.08 10.08 0 0 1 1.46 1.1 3.07 3.07 0 0 1 .55 1.82 2.63 2.63 0 0 1-.36 1.27c0 .36-.36.55-.55.91s-.73.54-1.45 1.27c-.18 0-.18.18-.36.36s-.19.19-.19.37-.18.18-.18.36a.67.67 0 0 1-.18.55c0 .55-.36.73-.91.73a.94.94 0 0 1-.73-.36c-.18-.18-.18-.36-.18-.73s0-.91.18-1.09a4 4 0 0 0 .55-.91l.91-.91.73-.73c.18-.18.36-.36.36-.55.18 0 .18-.36.18-.55a1.57 1.57 0 0 0-.55-1.09 2 2 0 0 0-1.09-.36 2.12 2.12 0 0 0-1.27.36 7.7 7.7 0 0 0-.91 1.28c-.18.73-.36.91-.91.91-.36 0-.55 0-.73-.18a.73.73 0 0 1-.36-.73zm3.82 8.73c-.36 0-.55-.18-.91-.36-.18 0-.18-.36-.18-.73s.18-.55.36-.91a1.38 1.38 0 0 1 .73-.36c.36 0 .55.18.91.36a1.32 1.32 0 0 1 0 1.82 1.36 1.36 0 0 1-.91.18z"/></g></g></g></svg>