<svg xmlns="http://www.w3.org/2000/svg" viewBox="0 0 24 23.81"><path d="M6.72 23.81V21H2.5v-4.58H0L1.39 10l.15-.58A9 9 0 0 1 9.33 3a.64.64 0 0 1 .13 1.28 7.73 7.73 0 0 0-6.68 5.47l-.17.64-1 4.71h2.15v4.57H8v2.8h6.1v-3.8l.3-.19a7.52 7.52 0 0 0 2.84-3.32.65.65 0 0 1 1.18.53 8.87 8.87 0 0 1-3 3.66v4.45zm9.18-9.28a1.39 1.39 0 0 1-1.4-1.23l-.06-.51-.41.32a1.44 1.44 0 0 1-.86.3 1.36 1.36 0 0 1-1-.41L11 11.81a1.4 1.4 0 0 1-.12-1.81l.32-.41-.51-.06a1.41 1.41 0 0 1-1.22-1.42V6.42A1.39 1.39 0 0 1 10.69 5h.52l-.32-.41A1.4 1.4 0 0 1 11 2.71l1.2-1.2a1.36 1.36 0 0 1 1-.41 1.44 1.44 0 0 1 .86.3l.41.32.06-.51A1.41 1.41 0 0 1 15.89 0h1.69A1.41 1.41 0 0 1 19 1.22l.06.51.41-.32a1.43 1.43 0 0 1 .86-.3 1.36 1.36 0 0 1 1 .41l1.2 1.2a1.4 1.4 0 0 1 .11 1.84l-.37.44.51.06A1.41 1.41 0 0 1 24 6.42v1.69a1.39 1.39 0 0 1-1.22 1.39l-.51.06.32.41a1.4 1.4 0 0 1-.11 1.84L21.28 13a1.36 1.36 0 0 1-1 .41 1.43 1.43 0 0 1-.86-.3l-.42-.32-.06.51a1.41 1.41 0 0 1-1.39 1.22zm-.19-3l.19 1.65h1.69l.19-1.65A4.1 4.1 0 0 0 19 11l1.3 1 1.2-1.2-1-1.3a4.35 4.35 0 0 0 .5-1.18l1.65-.19V6.44L21 6.25A4.1 4.1 0 0 0 20.47 5l1-1.3-1.2-1.2-1.3 1a4.35 4.35 0 0 0-1.2-.5l-.19-1.65h-1.69L15.7 3a4.09 4.09 0 0 0-1.22.51l-1.3-1L12 3.72 13 5a2.83 2.83 0 0 0-.51 1.22l-1.65.19v1.72l1.65.19A4.1 4.1 0 0 0 13 9.54l-1 1.3 1.2 1.2 1.3-1a4.34 4.34 0 0 0 1.22.51zm-1.78-4.26a2.82 2.82 0 1 1 .83 2 2.82 2.82 0 0 1-.83-2zm1.39 0a1.43 1.43 0 1 0 1.43-1.43 1.43 1.43 0 0 0-1.43 1.43z"/></svg>