<svg xmlns="http://www.w3.org/2000/svg" viewBox="0 0 37 32"><path d="M35.429 14.858H10.743l5.947-5.947a1.13 1.13 0 0 0-.839-1.892c-.293 0-.56.111-.761.293l-7.891 7.884a.707.707 0 0 0-.219.805c.01.344.138.662.344.912l7.872 7.887a1.13 1.13 0 0 0 1.892-.839c0-.293-.111-.56-.293-.761l-6.056-6.056h24.69a1.143 1.143 0 0 0 0-2.286zM29.714 27.43a2.293 2.293 0 0 1-2.286 2.286H4.572a2.293 2.293 0 0 1-2.286-2.286V4.572a2.293 2.293 0 0 1 2.286-2.286H27.43a2.293 2.293 0 0 1 2.286 2.286v3.427h2.286V4.572A4.586 4.586 0 0 0 27.43 0H4.572A4.585 4.585 0 0 0 0 4.572V27.43a4.585 4.585 0 0 0 4.572 4.572H27.43a4.586 4.586 0 0 0 4.572-4.572v-3.423h-2.288z"/></svg>