<svg xmlns="http://www.w3.org/2000/svg" viewBox="0 0 16 12.52"><path d="M6.13 12.52H4.05L4 11.77 3.87 11h-.08l-.6.47-.59.47-.54-.54-.94-.94-.53-.55.47-.59.47-.6a.19.19 0 0 0 0-.08l-.79-.08-.74-.1V5.63l.76-.08.76-.09a.18.18 0 0 1 0-.08l-.47-.6-.45-.59.51-.54.94-.94.54-.54.59.47.6.47h.08l.09-.76.05-.76h2.88l.07.76.05.75h.08l.6-.47.6-.48.54.54.94.94.54.54-.47.59-.47.6a.19.19 0 0 0 0 .08l.79.08.75.09v2.86l-.75.09-.76.09a.18.18 0 0 1 0 .08l.47.6.47.59-.54.54-.94.94-.54.54-.59-.47-.57-.47h-.08l-.07.77-.09.75zm-1.49-2.16l.16 1.3h1.32l.16-1.3a3.1 3.1 0 0 0 1-.39l1 .81.94-.94-.81-1a3.4 3.4 0 0 0 .39-1l1.3-.16v-1.3l-1.3-.16a3 3 0 0 0-.39-1l.81-1-.94-.94-1 .81a3.41 3.41 0 0 0-1-.39l-.16-1.3H4.8l-.16 1.3a3 3 0 0 0-1 .39l-1-.81-.94.94.81 1a3.39 3.39 0 0 0-.39 1l-1.3.16V7.7l1.3.16a3.05 3.05 0 0 0 .39 1l-.81 1 .94.94 1-.81a3.44 3.44 0 0 0 1 .39zM3.48 7a2 2 0 1 1 2 2 2 2 0 0 1-2-2zm.85 0a1.13 1.13 0 1 0 .33-.8 1.12 1.12 0 0 0-.33.8zm8.28-1.13l-.1-.84a2 2 0 0 1-.61-.25l-.65.52-.6-.6.52-.65a2.54 2.54 0 0 1-.25-.61l-.84-.11v-.79l.85-.1a2 2 0 0 1 .25-.61l-.52-.65.6-.6.65.52a2.35 2.35 0 0 1 .62-.25l.08-.85h.85l.1.85a2 2 0 0 1 .62.25l.65-.52.6.6-.52.65a2.34 2.34 0 0 1 .25.62l.84.09v.85l-.84.11a2 2 0 0 1-.25.61l.52.65-.6.6-.65-.52a2.35 2.35 0 0 1-.62.25l-.1.84zm-1-3A1.4 1.4 0 1 0 12 2a1.4 1.4 0 0 0-.41 1zm.68 0a.73.73 0 0 1 .71-.64.72.72 0 1 1-.72.72z"/></svg>