<svg xmlns="http://www.w3.org/2000/svg" viewBox="0 0 24 23.96"><path d="M6.76 23.18l-6-6a2.68 2.68 0 0 1 0-3.83L12.73 1.47l8-1.43a3.53 3.53 0 0 1 .5 0A2.75 2.75 0 0 1 24 3.23l-1.43 8-11.96 11.95a2.78 2.78 0 0 1-1.93.82 2.73 2.73 0 0 1-1.92-.82zM21 1.57L13.48 2.9 1.89 14.49a1.19 1.19 0 0 0 0 1.66l6 6a1.23 1.23 0 0 0 .83.33 1.19 1.19 0 0 0 .83-.33l11.56-11.63L22.44 3a1.15 1.15 0 0 0-.26-1 1.26 1.26 0 0 0-.93-.43.66.66 0 0 0-.25 0zM7.4 19.52a.76.76 0 0 1 0-1.09l6.77-6.77a.77.77 0 0 1 1.09 1.09L8.5 19.52a.69.69 0 0 1-.55.24.72.72 0 0 1-.55-.24zm-3-3.13a.76.76 0 0 1 0-1.09l6.77-6.77a.77.77 0 1 1 1.09 1.09l-6.78 6.77a.69.69 0 0 1-.55.24.72.72 0 0 1-.54-.24zm10.24-10a3.06 3.06 0 1 1 3.06 3.06 3.06 3.06 0 0 1-3.07-3.09zm1.54 0a1.52 1.52 0 1 0 1.52-1.52 1.5 1.5 0 0 0-1.52 1.52z"/></svg>