<svg xmlns="http://www.w3.org/2000/svg" viewBox="0 0 21.98 22"><path d="M0 19.11a2.89 2.89 0 1 1 .85 2 2.89 2.89 0 0 1-.85-2zm1.42 0a1.47 1.47 0 1 0 .43-1 1.47 1.47 0 0 0-.43 1zm6.68.72a.71.71 0 0 1-.7-.7.72.72 0 0 1 .7-.7h13.18a.7.7 0 0 1 0 1.4zM0 11a2.89 2.89 0 1 1 .85 2A2.89 2.89 0 0 1 0 11zm1.42 0a1.47 1.47 0 1 0 1.47-1.5A1.47 1.47 0 0 0 1.42 11zm6.68.72a.71.71 0 0 1-.7-.7.72.72 0 0 1 .7-.7h13.18a.7.7 0 0 1 0 1.4zM0 2.89a2.89 2.89 0 1 1 .85 2 2.89 2.89 0 0 1-.85-2zm1.42 0a1.47 1.47 0 1 0 1.47-1.47 1.47 1.47 0 0 0-1.47 1.47zm6.68.72a.71.71 0 0 1-.7-.7.72.72 0 0 1 .7-.7h13.18a.7.7 0 0 1 0 1.4z" fill="#26384e"/></svg>