<svg width="18" height="18" xmlns="http://www.w3.org/2000/svg"><path fill="#CCC" d="M9 17c4.42 0 8-3.58 8-8a8 8 0 1 0-8 8m0 1A9 9 0 1 1 9.001-.001 9 9 0 0 1 9 18m.01-4c-.27 0-.506-.088-.708-.264C8.1 13.56 8 13.314 8 12.998c0-.282.097-.517.292-.71A.985.985 0 0 1 9.01 12c.28 0 .514.096.704.287a.97.97 0 0 1 .286.71c0 .312-.1.557-.3.736a1 1 0 0 1-.69.267M6 6.604c0-.395.123-.794.367-1.2.244-.404.6-.74 1.067-1.005C7.902 4.132 8.448 4 9.073 4c.58 0 1.091.111 1.536.333.443.222.786.525 1.028.907.242.381.363.797.363 1.246 0 .352-.069.661-.206.927-.14.266-.303.496-.493.688-.19.193-.53.518-1.022.975a4.23 4.23 0 0 0-.328.34 1.255 1.255 0 0 0-.276.511c-.021.08-.054.222-.099.425-.076.432-.314.648-.714.648a.713.713 0 0 1-.525-.211c-.14-.141-.212-.35-.212-.63 0-.348.051-.65.156-.906.104-.255.242-.48.414-.673.172-.192.403-.421.695-.687.256-.233.442-.408.555-.526.114-.119.21-.25.288-.395a1.119 1.119 0 0 0-.24-1.314c-.237-.229-.544-.344-.92-.344-.44 0-.765.116-.973.345-.208.232-.384.57-.527 1.02-.136.468-.395.703-.775.703a.746.746 0 0 1-.566-.246A.761.761 0 0 1 6 6.604"/></svg>