<svg xmlns="http://www.w3.org/2000/svg" viewBox="0 0 24 23.42"><path d="M2.48 23.18L.23 20.93a.76.76 0 0 1 0-1.1.76.76 0 0 1 1.1 0L3 21.53 6.59 18a.78.78 0 1 1 1.1 1.1l-4.11 4.08a.76.76 0 0 1-.55.24.73.73 0 0 1-.55-.24zm7.46-2a.77.77 0 0 1-.76-.76.79.79 0 0 1 .76-.76h13.29a.77.77 0 0 1 0 1.53zm-7.46-6.84L.23 12.09a.77.77 0 0 1 0-1.1.76.76 0 0 1 1.1 0L3 12.69l3.59-3.57a.78.78 0 0 1 1.1 1.1l-4.11 4.12a.76.76 0 0 1-.55.24.69.69 0 0 1-.55-.24zm7.46-2a.77.77 0 0 1-.76-.76.79.79 0 0 1 .76-.76h13.29a.77.77 0 0 1 0 1.53zm-7.46-6.9L.23 3.2a.76.76 0 0 1 0-1.1.76.76 0 0 1 1.1 0L3 3.8 6.6.23a.76.76 0 0 1 1.1 0 .76.76 0 0 1 0 1.1L3.58 5.44a.76.76 0 0 1-.58.24.73.73 0 0 1-.52-.24zm7.46-2a.77.77 0 0 1-.76-.76.79.79 0 0 1 .76-.68h13.29a.77.77 0 0 1 0 1.53z" fill="#26384e"/></svg>