<svg xmlns="http://www.w3.org/2000/svg" viewBox="0 0 18 17.97"><path d="M17.47 3.25c-.3.34-.81.78-1.54 1.44a1.77 1.77 0 0 1-2.62 0 1.77 1.77 0 0 1 0-2.62C14 1.36 14.78.53 14.77.52a5.56 5.56 0 0 0-7.62 6.82L.61 13.88a2.47 2.47 0 0 0 3.5 3.48l6.55-6.5a5.59 5.59 0 0 0 5.72-1.34 5.53 5.53 0 0 0 1.09-6.27zm-2 5.37a4.33 4.33 0 0 1-5.11.74l-7.12 7.13a1.241 1.241 0 0 1-1.76-1.75l7.15-7.13a4.27 4.27 0 0 1 3.73-6.34 3.083 3.083 0 1 0 4.37 4.35 4.26 4.26 0 0 1-1.23 3z" fill="#fff"/><path d="M17.47 3.25c-.3.34-.81.78-1.54 1.44a1.77 1.77 0 0 1-2.62 0 1.77 1.77 0 0 1 0-2.62C14 1.36 14.78.53 14.77.52a5.56 5.56 0 0 0-7.62 6.82L.61 13.88a2.47 2.47 0 0 0 3.5 3.48l6.55-6.5a5.59 5.59 0 0 0 5.72-1.34 5.53 5.53 0 0 0 1.09-6.27zm-2 5.37a4.33 4.33 0 0 1-5.11.74l-7.12 7.13a1.241 1.241 0 0 1-1.76-1.75l7.15-7.13a4.27 4.27 0 0 1 3.73-6.34 3.083 3.083 0 1 0 4.37 4.35 4.26 4.26 0 0 1-1.23 3z"/></svg>