<svg version="1" xmlns="http://www.w3.org/2000/svg" width="933.333" height="933.333" viewBox="0 0 700.000000 700.000000"><path d="M329.8 33.1c-25.5 4.5-46.3 15.3-64.3 33.4-28.2 28.2-40.1 66.5-33 106.5 5.2 29.6 25 59.9 50.1 76.5 12.8 8.5 31 16.3 42 18.1 2.1.3 4.1.7 4.5.9.9.6 15.3 1.8 21.5 1.8 5.5 0 16.5-1 20.4-1.8 11.9-2.5 25-6.8 31.5-10.3 6.3-3.4 15-8.6 15.5-9.2.3-.3 2.1-1.7 4-3 6.2-4.2 18.1-16.3 24.2-24.5 10.7-14.5 18.9-34.2 21.9-52.4 1.4-8.8 1.4-29.2 0-36.6-3.9-20-12.1-39.6-21.9-52.6-19.9-26.2-45.1-41.4-78.7-47.5-8.1-1.5-27.8-1.1-37.7.7zM151.7 298.2c.6.7 15.3 20.4 32.9 43.8 17.5 23.4 32.1 42.7 32.4 43 .3.3 1.6 2.1 3 4 1.3 1.9 2.8 3.9 3.3 4.5.7.8 33.1 44 38.5 51.3 6.7 9.1 9.7 13.1 11.7 15.7 5.2 6.7 15.2 20.1 15.9 21.3.7 1.1-7.2 12.8-12.1 18-.7.7-1.3 1.7-1.3 2.1 0 .4-.8 1.6-1.8 2.7-.9 1-28.7 37.9-61.6 81.9-33 44-60.4 80.6-60.9 81.3-.8 1 10.9 1.2 58.9 1l59.9-.3 6.8-9c3.7-5 7.6-10 8.5-11.2.9-1.2 15.7-20.9 32.7-43.7 17.1-22.9 31.2-41.6 31.5-41.5.3 0 18.3 23.8 40 52.9l39.5 52.9 59.8.1h59.8l-1.9-2.8c-1.1-1.5-7.1-9.5-13.3-17.9-6.3-8.3-12.3-16.4-13.4-17.8-5.1-6.9-28.7-38.3-30.4-40.5-1-1.4-11.6-15.6-23.6-31.5-11.9-16-22.2-29.7-22.8-30.5-.7-.8-8.6-11.3-17.6-23.3l-16.3-21.9 3.3-4.6c1.8-2.6 3.6-4.9 3.9-5.2.5-.5 127.8-170 130.8-174.2 1.3-1.7-.6-1.8-58.5-1.8l-59.8.1-10.2 13.7c-5.6 7.5-11.1 14.8-12.2 16.2-1.1 1.4-7.9 10.4-15.1 20-7.2 9.6-13.6 18.2-14.3 19-.6.9-7.2 9.6-14.5 19.3l-13.3 17.9-31-41.4c-17-22.7-31.7-42.3-32.7-43.5-.9-1.2-4.8-6.5-8.7-11.7l-7-9.6h-59.9c-47.7 0-59.6.3-58.9 1.2z"/></svg>
