<svg viewBox="0 0 800 375" xmlns="http://www.w3.org/2000/svg"><g fill="none" fill-rule="evenodd"><path d="M498.277 113.252h-7.219a4.203 4.203 0 0 1-4.204-4.205v-57a4.203 4.203 0 0 0-4.205-4.204h-9.58a4.203 4.203 0 0 1-4.204-4.205V25.534a4.203 4.203 0 0 0-4.205-4.205h-37.57a4.203 4.203 0 0 0-4.204 4.205v18.123a4.203 4.203 0 0 1-4.205 4.205h-8.102a4.203 4.203 0 0 0-4.204 4.204v56.981a4.203 4.203 0 0 1-4.205 4.205h-7.218a4.203 4.203 0 0 0-4.205 4.204v248.582h111.659V117.437c.076-2.304-1.805-4.185-4.128-4.185zM408.35 319.846a4.416 4.416 0 0 1-8.831 0v-186.09a4.416 4.416 0 0 1 8.831 0v186.09zm21.003 9.043a4.416 4.416 0 0 1-8.83 0V64.852a4.416 4.416 0 0 1 8.83 0V328.89zm20.984 0a4.416 4.416 0 0 1-8.83 0V36.803a4.416 4.416 0 0 1 8.83 0V328.89zm20.984 0a4.416 4.416 0 0 1-8.831 0V64.852a4.416 4.416 0 0 1 8.831 0V328.89zm21.003-9.043a4.416 4.416 0 0 1-8.83 0v-186.09a4.416 4.416 0 0 1 8.83 0v186.09zm-119.01-207.727H341.33V98.546a1.114 1.114 0 0 0-2.227 0v13.573h-17.988V98.546a1.114 1.114 0 0 0-2.228 0v13.573H315.7v-7.334a1.995 1.995 0 0 0-1.997-1.996h-12.268a1.995 1.995 0 0 0-1.997 1.996v7.334H285.5c-5.49 0-9.944 4.454-9.944 9.945v234.893c0 5.49 4.454 9.945 9.944 9.945h87.795c5.49 0 9.945-4.454 9.945-9.945V122.064c.019-5.49-4.435-9.945-9.926-9.945zm-66.83 105.899v17.662h-17.662v-17.662h17.662zm-17.662-11.769v-17.662h17.662v17.662h-17.662zm17.662 43.37v17.662h-17.662v-17.663h17.662zm0-72.648h-17.662V159.31h17.662v17.662zm12.44-47.113h17.663v17.663h-17.662v-17.663zm0 29.432h17.663v17.662h-17.662V159.29zm17.663 137.441h-17.662V279.07h17.662v17.662zm0-29.45h-17.662v-17.663h17.662v17.663zm0-31.581h-17.662v-17.663h17.662V235.7zm12.441-105.842h17.663v17.663h-17.663v-17.663zm0 29.432h17.663v17.662h-17.663V159.29zm0 29.297h17.663v17.662h-17.663v-17.662zm17.663 108.144h-17.663V279.07h17.663v17.662zm0-29.45h-17.663v-17.663h17.663v17.663zm-286.48-61.109V364.79a6.727 6.727 0 0 0 6.72 6.72h59.285a6.727 6.727 0 0 0 6.719-6.72V206.172a6.727 6.727 0 0 0-6.72-6.72h-9.407V194.5c0-.75-.614-1.344-1.344-1.344h-8.293c-.75 0-1.344.614-1.344 1.344v4.953h-2.15v-9.158a.75.75 0 0 0-.75-.749.738.738 0 0 0-.748.75v9.157h-12.172v-9.158a.75.75 0 0 0-1.497 0v9.158h-21.6c-3.705 0-6.7 3.014-6.7 6.72zm63.777 64.795v11.922h-11.922v-11.922h11.922zm-11.941-7.948v-11.922h11.922v11.922h-11.922zm11.941 29.297v11.922h-11.922v-11.922h11.922zm-11.941-60.994h11.922v11.923h-11.922v-11.923zm-8.39-7.967h-11.922v-11.922h11.922v11.922zm0 19.89h-11.922v-11.923h11.922v11.923zm-11.922 68.941h11.922v11.922h-11.922v-11.922zm0-19.87h11.922v11.922h-11.922v-11.922zm0-21.349h11.922v11.922h-11.922v-11.922zm-8.409-47.612H91.404v-11.922h11.922v11.922zm0 19.89H91.404v-11.923h11.922v11.923zm0 19.774H91.404v-11.922h11.922v11.922zm-11.922 49.167h11.922v11.922H91.404v-11.922zm0-19.87h11.922v11.922H91.404v-11.922z" fill="#E6ECEF" fill-rule="nonzero"/><g fill="#E6ECEF" fill-rule="nonzero"><path d="M205.462 328.217h17.663v17.663h-17.663zm0-61.051h17.663v17.663h-17.663zm0-58.728h17.663v17.663h-17.663zm0-29.432h17.663v17.663h-17.663zm-30.103 29.432h17.663v17.663h-17.663zm0 58.728h17.663v17.663h-17.663zm0 31.6h17.663v17.663h-17.663zm0-61.032h17.663v17.663h-17.663zm30.103 61.032h17.663v17.663h-17.663zm30.103-119.76h17.663v17.663h-17.663zm0 29.432h17.663v17.663h-17.663zm0 29.296h17.663v17.663h-17.663zm0 90.483h17.663v17.663h-17.663zm0-29.451h17.663v17.663h-17.663z"/><path d="M175.359 208.438h17.663v17.663h-17.663zm0 29.296h17.663v17.663h-17.663zm30.103 90.483h17.663v17.663h-17.663zm0-29.451h17.663v17.663h-17.663zm0-31.6h17.663v17.663h-17.663zm-30.103 0h17.663v17.663h-17.663zm0 31.6h17.663v17.663h-17.663zm60.206-119.76h17.663v17.663h-17.663zm0 29.432h17.663v17.663h-17.663zm-30.103 0h17.663v17.663h-17.663zm30.103 29.296h17.663v17.663h-17.663zm-30.103-58.728h17.663v17.663h-17.663zm30.103 149.211h17.663v17.663h-17.663zm0-29.451h17.663v17.663h-17.663z"/><path d="M259.851 161.267h-31.984v-.326h-2.208v.326h-17.99v-.326h-2.207v.326h-3.187v-.326h-16.28v.326h-13.938c-5.491 0-9.945 4.454-9.945 9.945V352.33c0 7.93 6.431 14.36 14.36 14.36h78.964c7.929 0 14.36-6.43 14.36-14.36V171.212c0-5.49-4.454-9.945-9.945-9.945zm-66.83 155.162H175.36v-17.663h17.662v17.663zm0-31.581H175.36v-17.663h17.662v17.663zm0-29.45H175.36v-17.663h17.662v17.662zm0-29.278H175.36v-17.663h17.662v17.663zm30.104 119.76h-17.663v-17.663h17.663v17.663zm0-29.45h-17.663v-17.664h17.663v17.663zm0-31.582h-17.663v-17.663h17.663v17.663zm0-58.728h-17.663v-17.663h17.663v17.663zm0-29.45h-17.663v-17.664h17.663v17.663zm30.103 149.21h-17.663v-17.663h17.663v17.663zm0-29.45h-17.663v-17.664h17.663v17.663zm0-61.033h-17.663v-17.662h17.663v17.662zm0-29.277h-17.663v-17.663h17.663v17.663zm0-29.45h-17.663v-17.664h17.663v17.663z"/><path d="M215.388 135.618c-19.199 0-35.46 12.556-41.028 29.911h82.035c-5.548-17.355-21.809-29.911-41.007-29.911z"/></g><g fill="#E6ECEF" fill-rule="nonzero"><path d="M31.102 349.105h11.25v11.25h-11.25zm0-38.839h11.25v11.25h-11.25zm0-37.379h11.25v11.25h-11.25zm0-18.757h11.25v11.25h-11.25zm-19.16 18.757h11.25v11.25h-11.25zm0 37.379h11.25v11.25h-11.25zm0 20.101h11.25v11.25h-11.25zm0-38.857h11.25v11.25h-11.25zm19.16 38.857h11.25v11.25h-11.25zm19.16-76.237h11.25v11.25h-11.25zm0 18.757h11.25v11.25h-11.25zm0 18.623h11.25v11.25h-11.25zm0 57.595h11.25v11.25h-11.25zm0-18.738h11.25v11.25h-11.25z"/><path d="M11.942 272.887h11.25v11.25h-11.25zm0 18.623h11.25v11.25h-11.25zm19.16 57.595h11.25v11.25h-11.25zm0-18.737h11.25v11.25h-11.25zm0-20.101h11.25v11.25h-11.25zm-19.16 0h11.25v11.25h-11.25zm0 20.101h11.25v11.25h-11.25zm38.32-76.238h11.25v11.25h-11.25zm0 18.757h11.25v11.25h-11.25zm-19.16 0h11.25v11.25h-11.25zm19.16 18.623h11.25v11.25h-11.25zm-19.16-37.38h11.25v11.25h-11.25zm19.16 94.975h11.25v11.25h-11.25zm0-18.737h11.25v11.25h-11.25z"/><path d="M65.736 242.841h-20.35v-.21h-1.422v.21H32.503v-.21h-1.401v.21h-2.036v-.21H18.7v.21H9.83a6.342 6.342 0 0 0-6.335 6.336v115.287a9.136 9.136 0 0 0 9.139 9.138h50.261c5.05 0 9.139-4.09 9.139-9.138V249.177a6.297 6.297 0 0 0-6.297-6.336zm-42.544 98.776h-11.25v-11.25h11.25v11.25zm0-20.12h-11.25v-11.25h11.25v11.25zm0-18.737h-11.25v-11.25h11.25v11.25zm0-18.642h-11.25v-11.25h11.25v11.25zm19.16 76.237h-11.25v-11.25h11.25v11.25zm0-18.738h-11.25v-11.25h11.25v11.25zm0-20.12h-11.25v-11.25h11.25v11.25zm0-37.379h-11.25v-11.25h11.25v11.25zm0-18.738h-11.25v-11.25h11.25v11.25zm19.16 94.975h-11.25v-11.25h11.25v11.25zm0-18.738h-11.25v-11.25h11.25v11.25zm0-38.857h-11.25v-11.25h11.25v11.25zm0-18.642h-11.25v-11.25h11.25v11.25zm0-18.738h-11.25v-11.25h11.25v11.25z"/><path d="M37.418 226.523c-12.21 0-22.578 7.986-26.11 19.045h52.22c-3.533-11.04-13.88-19.045-26.11-19.045z"/></g><path d="M797.504 224.66h-4.108a2.38 2.38 0 0 1-2.38-2.38v-22.27c0-1.248-1.076-2.247-2.381-2.247H783.2c-1.324 0-2.38-.998-2.38-2.246v-9.714c0-1.248-1.075-2.246-2.38-2.246l-7.104-21.196c-1.19-3.57-6.259-3.551-7.41.039l-6.836 21.157c-1.324 0-2.38.998-2.38 2.246v9.714c0 1.248-1.075 2.246-2.38 2.246h-4.608c-1.325 0-2.381.999-2.381 2.247v22.27a2.38 2.38 0 0 1-2.38 2.38h-4.11a2.38 2.38 0 0 0-2.38 2.381V359.53a8.792 8.792 0 0 0 8.793 8.793h45.865a8.792 8.792 0 0 0 8.793-8.793V227.04c-.038-1.305-1.094-2.38-2.419-2.38z" fill="#E6ECEF" fill-rule="nonzero"/><path fill="#FFF" fill-rule="nonzero" d="M753.54 207.439h11.423v11.423H753.54zm17.855 0h11.423v11.423h-11.423zM753.54 229.71h11.423v11.423H753.54z"/><path fill="#FFF" fill-rule="nonzero" d="M753.54 207.439h11.423v11.423H753.54zm17.855 0h11.423v11.423h-11.423zM753.54 229.71h11.423v11.423H753.54zm0 22.654h11.423v11.423H753.54zm17.855 0h11.423v11.423h-11.423zm0 22.27h11.423v11.423h-11.423zM753.54 296.52h11.423v11.423H753.54zm17.855 0h11.423v11.423h-11.423zm0 22.27h11.423v11.423h-11.423zM247.449 203.696H181.79c-5.798 0-10.501-4.704-10.501-10.502 0-5.798 4.703-10.501 10.501-10.501h65.659c5.798 0 10.502 4.703 10.502 10.501.019 5.798-4.685 10.502-10.502 10.502zm0 36.477H181.79c-5.798 0-10.501-4.704-10.501-10.502 0-5.798 4.703-10.501 10.501-10.501h65.659c5.798 0 10.502 4.703 10.502 10.501.019 5.798-4.685 10.502-10.502 10.502zm0 36.477H181.79c-5.798 0-10.501-4.704-10.501-10.502 0-5.798 4.703-10.501 10.501-10.501h65.659c5.798 0 10.502 4.703 10.502 10.501.019 5.798-4.685 10.502-10.502 10.502zm0 36.477H181.79c-5.798 0-10.501-4.704-10.501-10.502 0-5.798 4.703-10.501 10.501-10.501h65.659c5.798 0 10.502 4.703 10.502 10.501.019 5.798-4.685 10.502-10.502 10.502zM58.383 268.01a6.522 6.522 0 0 0 6.527-6.527 6.522 6.522 0 0 0-6.527-6.527h-7.488a6.522 6.522 0 0 0-6.527 6.527 6.522 6.522 0 0 0 6.527 6.528h7.488zm-41.277-13.054a6.522 6.522 0 0 0-6.528 6.527 6.522 6.522 0 0 0 6.528 6.528h7.487a6.522 6.522 0 0 0 6.528-6.528 6.522 6.522 0 0 0-6.528-6.527h-7.487zm0 23.864a6.522 6.522 0 0 0-6.528 6.527 6.522 6.522 0 0 0 6.528 6.527h7.487a6.522 6.522 0 0 0 6.528-6.527 6.522 6.522 0 0 0-6.528-6.528h-7.487zm41.277 13.054a6.522 6.522 0 0 0 6.527-6.527 6.522 6.522 0 0 0-6.527-6.528h-7.488a6.522 6.522 0 0 0-6.527 6.528 6.522 6.522 0 0 0 6.527 6.527h7.488zm-41.277 10.828a6.522 6.522 0 0 0-6.528 6.528 6.522 6.522 0 0 0 6.528 6.527h7.487a6.522 6.522 0 0 0 6.528-6.527 6.522 6.522 0 0 0-6.528-6.528h-7.487zm41.277 13.055a6.522 6.522 0 0 0 6.527-6.527 6.522 6.522 0 0 0-6.527-6.528h-7.488a6.522 6.522 0 0 0-6.527 6.528 6.522 6.522 0 0 0 6.527 6.527h7.488zm-41.277 10.809a6.522 6.522 0 0 0-6.528 6.527 6.522 6.522 0 0 0 6.528 6.528h7.487a6.522 6.522 0 0 0 6.528-6.528 6.522 6.522 0 0 0-6.528-6.527h-7.487zm41.277 13.054a6.522 6.522 0 0 0 6.527-6.527 6.522 6.522 0 0 0-6.527-6.527h-7.488a6.522 6.522 0 0 0-6.527 6.527 6.522 6.522 0 0 0 6.527 6.528h7.488z"/><path d="M651.884 194.577h14.82v14.82h-14.82zm25.246 75.719h14.82v14.82h-14.82zm-25.246-51.164h14.82v14.82h-14.82zm0 24.688h14.82v14.822h-14.82zm25.246 0h14.82v14.822h-14.82zm-25.246 26.476h14.82v14.82h-14.82zm25.246 24.689h14.82v14.82h-14.82zm25.227-125.097h14.82v14.82h-14.82zm0 24.689h14.82v14.82h-14.82zm0 24.555h14.82v14.82h-14.82zm-25.227-24.555h14.82v14.82h-14.82zm25.227 75.719h14.82v14.82h-14.82zM677.13 169.888h14.82v14.82h-14.82zm25.227 125.097h14.82v14.82h-14.82z"/><path d="M722.726 155.008h-26.82v-.019h-1.843v.02h-15.09v-.02h-1.843v.02h-2.688v-.02h-13.65v.02H649.1a8.325 8.325 0 0 0-8.332 8.332v196.937a8.325 8.325 0 0 0 8.332 8.333h73.607a8.325 8.325 0 0 0 8.332-8.333V163.36a8.312 8.312 0 0 0-8.313-8.352zm-56.02 130.108h-14.822v-14.82h14.821v14.82zm0-26.493h-14.822V243.82h14.821v14.803zm0-24.69h-14.822v-14.82h14.821v14.82zm0-24.535h-14.822v-14.822h14.821v14.822zm25.226 100.408H677.13v-14.822h14.821v14.822h-.02zm0-24.69H677.13v-14.82h14.821v14.82h-.02zm0-26.493H677.13V243.82h14.821v14.803h-.02zm0-49.225H677.13v-14.822h14.821v14.822h-.02zm0-24.69H677.13v-14.82h14.821v14.82h-.02zm25.246 125.098h-14.821v-14.822h14.82v14.822zm0-24.69h-14.821v-14.82h14.82v14.82zm0-51.183h-14.821v-14.82h14.82v14.82zm0-24.535h-14.821v-14.822h14.82v14.822zm0-24.69h-14.821v-14.82h14.82v14.82z" fill="#E6ECEF" fill-rule="nonzero"/><path d="M713.357 162.803h-54.274v-22.731c0-4.896 3.974-8.87 8.87-8.87h36.515c4.896 0 8.87 3.974 8.87 8.87v22.731h.02z" fill="#E6ECEF" fill-rule="nonzero"/><path d="M700.936 149.498h-29.431v-22.73c0-4.896 3.974-8.87 8.87-8.87h11.691c4.896 0 8.87 3.974 8.87 8.87v22.73zM449.57 26.494h-7.16V3.59A3.597 3.597 0 0 1 446 0a3.597 3.597 0 0 1 3.59 3.59v22.904h-.02z" fill="#E6ECEF" fill-rule="nonzero"/><g fill-rule="nonzero"><g fill="#415469"><path d="M637.946 361.142l-191.908-.403L473.895 74.01h136.367z"/><path d="M637.946 362.39l-191.927-.403c-.346 0-.691-.154-.922-.403a1.362 1.362 0 0 1-.326-.96l27.857-286.73a1.252 1.252 0 0 1 1.248-1.132h136.366c.634 0 1.171.48 1.248 1.133l27.684 287.151c.039.346-.076.691-.326.96-.211.25-.537.384-.902.384zM447.4 359.491l189.182.403-27.454-284.636h-134.1L447.4 359.491z"/></g><path d="M619.438 81.613H467.022a6.653 6.653 0 0 1-6.662-6.662 6.653 6.653 0 0 1 6.662-6.662h152.416a6.653 6.653 0 0 1 6.662 6.662 6.665 6.665 0 0 1-6.662 6.662z" fill="#C6C6C6"/><path d="M619.438 82.86H467.022c-4.358 0-7.91-3.551-7.91-7.91 0-4.357 3.552-7.909 7.91-7.909h152.416c4.358 0 7.91 3.552 7.91 7.91a7.91 7.91 0 0 1-7.91 7.91zM467.022 69.519a5.42 5.42 0 0 0-5.414 5.414c0 2.975 2.438 5.414 5.414 5.414h152.416a5.42 5.42 0 0 0 5.414-5.414c0-2.976-2.438-5.414-5.414-5.414H467.022z" fill="#415469"/><path d="M640.576 368.553h-196.42c-3.513 0-5.797-2.208-5.797-5.894a6.665 6.665 0 0 1 6.661-6.662h196.42a6.653 6.653 0 0 1 6.662 6.662c0 3.667-3.091 5.913-7.526 5.894z" fill="#C6C6C6"/><path d="M640.672 369.8H444.156c-4.28 0-7.045-2.802-7.045-7.141 0-4.358 3.551-7.91 7.91-7.91H641.44c4.358 0 7.91 3.552 7.91 7.91 0 1.843-.672 3.494-1.92 4.742-1.555 1.536-3.955 2.4-6.758 2.4zM445.02 357.246a5.408 5.408 0 0 0-5.414 5.414c0 2.957 1.651 4.646 4.55 4.646h196.44c2.169.02 3.992-.576 5.087-1.67.787-.787 1.19-1.786 1.19-2.957 0-2.976-2.438-5.414-5.414-5.414H445.02v-.019zM459.419 74.01H625.87v2.496H459.419z" fill="#415469"/><path fill="#415469" d="M437.648 361.546H648.14v2.496H437.648z"/></g><g fill-rule="nonzero"><path d="M623.7 200.067l1.479 15.57c6.642 2.15 11.461 8.37 11.461 15.724 0 9.1-7.41 16.51-16.51 16.51h-70.593v14.975h70.573c17.356 0 31.486-14.13 31.486-31.485 0-16.165-12.23-29.508-27.895-31.294z" fill="#8995A2"/><path d="M620.11 264.075h-71.84v-17.47h71.84c8.41 0 15.263-6.855 15.263-15.264 0-8.408-6.854-15.262-15.263-15.262h-1.248v-17.47h1.248c18.047 0 32.734 14.686 32.734 32.732 0 18.047-14.687 32.734-32.734 32.734zm-69.344-2.496h69.344c16.665 0 30.238-13.573 30.238-30.238 0-16.26-12.901-29.546-28.99-30.218v12.498c9.216.634 16.511 8.352 16.511 17.72 0 9.792-7.967 17.76-17.759 17.76h-69.344v12.478z" fill="#415469"/></g><path d="M620.11 259.66h-2.726a2.483 2.483 0 0 1-2.476-2.477v-3.091a2.483 2.483 0 0 1 2.476-2.477h.403a2.47 2.47 0 0 1 2.477 2.477l.038 5.586-.192-.019zm-13.074 0h-.403a2.483 2.483 0 0 1-2.477-2.477v-3.091a2.483 2.483 0 0 1 2.477-2.477h.403a2.483 2.483 0 0 1 2.477 2.477v3.09c.019 1.364-1.094 2.477-2.477 2.477zm-10.75 0h-.404a2.483 2.483 0 0 1-2.477-2.477v-3.091a2.483 2.483 0 0 1 2.477-2.477h.403a2.483 2.483 0 0 1 2.477 2.477v3.09c.019 1.364-1.095 2.477-2.477 2.477zm-10.752 0h-.403a2.483 2.483 0 0 1-2.477-2.477v-3.091a2.483 2.483 0 0 1 2.477-2.477h.403a2.483 2.483 0 0 1 2.477 2.477v3.09c.019 1.364-1.095 2.477-2.477 2.477zm-10.751 0h-.403a2.483 2.483 0 0 1-2.477-2.477v-3.091a2.483 2.483 0 0 1 2.477-2.477h.403a2.483 2.483 0 0 1 2.476 2.477v3.09c.02 1.364-1.094 2.477-2.476 2.477zm-10.751 0h-.403a2.483 2.483 0 0 1-2.477-2.477v-3.091a2.483 2.483 0 0 1 2.477-2.477h.403a2.483 2.483 0 0 1 2.476 2.477v3.09c.02 1.364-1.094 2.477-2.476 2.477zm-10.751 0h-.404a2.483 2.483 0 0 1-2.476-2.477v-3.091a2.483 2.483 0 0 1 2.476-2.477h.404a2.483 2.483 0 0 1 2.476 2.477v3.09c.02 1.364-1.094 2.477-2.476 2.477zm72.647-3.284l-.71-3.033a2.482 2.482 0 0 1 1.593-2.899c.019 0 .019-.02.038-.02a2.497 2.497 0 0 1 3.072 1.249l1.363 2.783a2.48 2.48 0 0 1-1.363 3.418c-.25.096-.5.192-.749.269-1.42.499-2.918-.327-3.244-1.767zm10.136-4.953l-1.958-2.419c-.787-.979-.73-2.419.173-3.302l.038-.038c.883-.903 2.304-.98 3.302-.212l2.439 1.92a2.5 2.5 0 0 1 .25 3.686c-.193.192-.366.384-.558.557-1.055 1.037-2.764.96-3.686-.192zm7.008-8.87l-2.803-1.343a2.505 2.505 0 0 1-1.287-3.053c0-.02.02-.038.02-.038a2.48 2.48 0 0 1 2.88-1.613l3.033.672a2.486 2.486 0 0 1 1.824 3.206c-.077.25-.173.5-.27.749a2.47 2.47 0 0 1-3.397 1.42zm-3.13-13.208v-.039a2.482 2.482 0 0 1 1.901-2.707l3.033-.69a2.499 2.499 0 0 1 3.034 2.111c.038.269.057.519.096.787.153 1.46-.999 2.746-2.458 2.746l-3.11.019a2.529 2.529 0 0 1-2.496-2.227zm-2.937-8.351c0-.02-.02-.02-.02-.039a2.49 2.49 0 0 1 .538-3.264l2.42-1.939a2.485 2.485 0 0 1 3.647.595c.154.23.288.442.422.672a2.48 2.48 0 0 1-1.036 3.533l-2.803 1.363a2.483 2.483 0 0 1-3.168-.921zm-6.278-6.278c-.02 0-.02-.02-.038-.02-1.075-.672-1.46-2.035-.922-3.187l1.344-2.802a2.48 2.48 0 0 1 3.533-1.037c.23.134.46.288.672.422 1.228.806 1.516 2.496.595 3.648l-1.94 2.438c-.767.98-2.169 1.21-3.244.538zm-8.351-2.919h-.039a2.478 2.478 0 0 1-2.207-2.476v-3.11a2.487 2.487 0 0 1 2.726-2.477c.269.02.518.058.787.096a2.481 2.481 0 0 1 2.112 3.014l-.691 3.034a2.484 2.484 0 0 1-2.688 1.92z" fill="#415469" fill-rule="nonzero"/><g fill-rule="nonzero"><path d="M549.422 347.339H257.375V191.812c0-6.316 5.126-11.442 11.442-11.442H537.96c6.316 0 11.442 5.126 11.442 11.442l.02 155.527z" fill="#DDD"/><path d="M550.67 348.587H256.127V191.812c0-7.008 5.702-12.69 12.69-12.69H537.96c7.008 0 12.69 5.702 12.69 12.69v156.775h.02zm-292.047-2.496h289.55V191.81c0-5.624-4.568-10.194-10.194-10.194H268.817c-5.625 0-10.194 4.57-10.194 10.195V346.09z" fill="#415469"/><path fill="#FFF" d="M270.544 195.038h265.707v152.359H270.544z"/><path d="M537.5 348.644H269.296V193.79h268.202v154.855zm-265.707-2.496h263.21V196.285h-263.21v149.863z" fill="#415469"/><path d="M560.384 368.591h-313.99c-7.623 0-13.785-6.182-13.785-13.784v-6.816h341.579v6.816c0 7.602-6.182 13.784-13.804 13.784z" fill="#DDD"/><path d="M560.384 369.84h-313.99c-8.295 0-15.033-6.74-15.033-15.033v-8.064h344.075v8.064c0 8.294-6.758 15.032-15.052 15.032zm-326.528-20.62v5.568c0 6.911 5.626 12.536 12.537 12.536h313.991c6.911 0 12.537-5.625 12.537-12.536v-5.568H233.856z" fill="#415469"/><path d="M437.59 357.84h-68.404a7.767 7.767 0 0 1-7.775-7.775v-2.784h83.955v2.784c0 4.3-3.475 7.775-7.775 7.775z" fill="#FFF"/><path d="M437.59 359.088h-68.404c-4.972 0-9.023-4.05-9.023-9.023v-4.032h86.45v4.032c0 4.972-4.05 9.023-9.022 9.023zm-74.912-10.56v1.537c0 3.59 2.938 6.527 6.528 6.527h68.404c3.59 0 6.527-2.937 6.527-6.527v-1.536h-81.459z" fill="#415469"/></g><g fill-rule="nonzero"><path d="M228.654 316.851s-.02 0 0 0l-64.91-.767c-.346 0-.672-.154-.903-.404a1.198 1.198 0 0 1-.307-.94l16.51-183.346a1.237 1.237 0 0 1 1.249-1.132h31.87c.652 0 1.19.499 1.247 1.132l16.51 184.114c.04.345-.095.69-.326.96-.268.25-.595.383-.94.383zm-63.528-3.244l62.165.73-16.28-181.618h-29.586l-16.299 180.888z" fill="#415469"/><path d="M201.91 142.26l-8.332-21.732 160.518-58.152 6.106 15.935-158.292 63.95zm-5.087-20.254l6.508 16.99 153.664-62.068-4.358-11.365-155.814 56.443z" fill="#415469"/><path d="M407.699 107.147L350.833 79.98l10.002-18.834 54.332 31.927-7.468 14.073zM354.25 78.848l52.373 25.016 5.222-9.85-50.03-29.392-7.565 14.226z" fill="#415469"/><path d="M368.726 70.094c.268 7.871-6.413 14.245-14.38 13.477-6.201-.595-11.173-5.548-11.75-11.75-.748-7.967 5.626-14.629 13.478-14.38 6.854.231 12.44 5.799 12.652 12.653z" fill="#5DB0E1"/><path d="M355.613 84.876c-.46 0-.921-.019-1.382-.057-6.816-.653-12.23-6.067-12.882-12.882a14.458 14.458 0 0 1 3.82-11.231 14.41 14.41 0 0 1 10.943-4.512c7.526.25 13.593 6.335 13.842 13.842a14.41 14.41 0 0 1-4.511 10.943c-2.65 2.515-6.182 3.897-9.83 3.897zm.039-26.186a11.826 11.826 0 0 0-8.64 3.743c-2.323 2.477-3.475 5.856-3.168 9.273a11.83 11.83 0 0 0 10.636 10.636 11.843 11.843 0 0 0 9.273-3.168 11.888 11.888 0 0 0 3.725-9.042c-.211-6.201-5.222-11.231-11.442-11.442h-.384z" fill="#415469"/><path d="M419.87 99.16c.212 6.508-5.318 11.807-11.903 11.174-5.126-.48-9.253-4.608-9.733-9.734-.634-6.604 4.665-12.133 11.173-11.903 5.645.173 10.271 4.78 10.463 10.463z" fill="#5DB0E1"/><path d="M408.985 111.62c-.384 0-.768-.02-1.152-.058-5.74-.537-10.31-5.107-10.866-10.866a12.167 12.167 0 0 1 3.225-9.465 12.106 12.106 0 0 1 9.234-3.801c6.336.211 11.481 5.337 11.692 11.692a12.134 12.134 0 0 1-3.801 9.234 12.197 12.197 0 0 1-8.332 3.264zm.038-21.694a9.617 9.617 0 0 0-7.007 3.033 9.673 9.673 0 0 0-2.554 7.526 9.598 9.598 0 0 0 8.62 8.62 9.673 9.673 0 0 0 7.526-2.554 9.612 9.612 0 0 0 3.015-7.333c-.173-5.03-4.243-9.1-9.273-9.273-.116-.02-.212-.02-.327-.02z" fill="#415469"/><g transform="translate(176.05 110.967)"><circle fill="#5DB0E1" cx="20.638" cy="20.619" r="19.237"/><path d="M20.638 41.104C9.35 41.104.154 31.908.154 20.619S9.35.134 20.638.134c11.289 0 20.485 9.196 20.485 20.485s-9.196 20.485-20.485 20.485zm0-38.474c-9.925 0-17.989 8.064-17.989 17.99 0 9.925 8.064 17.988 17.99 17.988 9.925 0 17.988-8.063 17.988-17.989 0-9.925-8.063-17.989-17.989-17.989z" fill="#415469"/></g><g transform="translate(185.265 119.99)"><circle fill="#FFF" cx="11.423" cy="11.596" r="10.175"/><path d="M11.423 23.019C5.126 23.019 0 17.893 0 11.596S5.126.173 11.423.173s11.423 5.126 11.423 11.423-5.126 11.423-11.423 11.423zm0-20.331c-4.915 0-8.927 3.993-8.927 8.927a8.923 8.923 0 0 0 8.927 8.927 8.923 8.923 0 0 0 8.927-8.927c0-4.934-4.012-8.927-8.927-8.927z" fill="#415469"/></g><g transform="translate(348.26 63.163)"><circle fill="#FFF" cx="7.353" cy="7.219" r="5.952"/><path d="M7.353 14.418a7.202 7.202 0 0 1-7.2-7.2C.154 3.246 3.38.02 7.354.02s7.2 3.226 7.2 7.2-3.226 7.199-7.2 7.199zm0-11.903a4.711 4.711 0 0 0-4.704 4.704 4.711 4.711 0 0 0 4.704 4.703 4.711 4.711 0 0 0 4.704-4.703 4.711 4.711 0 0 0-4.704-4.704z" fill="#415469"/></g><g transform="translate(402.784 93.113)"><circle fill="#FFF" cx="6.355" cy="6.412" r="5.107"/><path d="M6.355 12.786A6.361 6.361 0 0 1 0 6.431C0 2.937 2.86.077 6.355.077c3.494 0 6.354 2.86 6.354 6.354 0 3.495-2.841 6.355-6.354 6.355zm0-10.233a3.86 3.86 0 1 0 0 7.719 3.86 3.86 0 0 0 0-7.719z" fill="#415469"/></g><path d="M198.704 316.66a1.245 1.245 0 0 1-.595-2.343c1.536-1.248 15.896-16.28 25.822-26.724l-52.508-53.372a1.263 1.263 0 0 1 0-1.766l43.657-43.657-37.225-37.61c-.48-.5-.48-1.286 0-1.766a1.263 1.263 0 0 1 1.766 0l38.109 38.493c.48.48.48 1.267 0 1.766l-43.658 43.657 52.47 53.353c.48.48.48 1.248.02 1.728-.059.076-6.663 7.045-13.267 13.918a1412.083 1412.083 0 0 1-9.254 9.58c-4.627 4.742-4.684 4.742-5.337 4.742z" fill="#415469"/><path d="M199.472 317.235c-.288 0-.595-.115-.825-.326l-32.503-29.24a1.227 1.227 0 0 1-.404-.882 1.205 1.205 0 0 1 .365-.922l52.757-53.583-44.118-44.579a1.24 1.24 0 0 1 0-1.747c.096-.096 9.388-9.618 18.68-19.006 5.453-5.53 9.85-9.926 13.036-13.074 6.374-6.297 6.528-6.297 7.18-6.297.692 0 1.248.556 1.248 1.247 0 .5-.288.922-.71 1.133-2.016 1.498-22.693 22.462-36.803 36.88l44.118 44.598c.48.48.48 1.268 0 1.748l-52.7 53.525 31.524 28.375c.518.461.557 1.248.096 1.766a1.37 1.37 0 0 1-.941.384zm28.548-186.033a1.15 1.15 0 0 1-.864-.364l-15.109-14.783c-.5-.48-.5-1.267-.02-1.767a1.247 1.247 0 0 1 1.767-.019l13.036 12.748.307-17.643c0-.5.307-.941.768-1.133.46-.192.998-.077 1.344.269l12.632 12.517.461-16.933c.02-.5.327-.94.787-1.133.461-.192.98-.076 1.344.27l11.942 11.691.134-16.28c0-.5.307-.96.768-1.152a1.28 1.28 0 0 1 1.363.269l11.385 11.365.173-15.282c0-.5.307-.94.768-1.133a1.24 1.24 0 0 1 1.343.25l11.692 11.212.461-15.282c.02-.5.326-.94.787-1.114.46-.192.98-.076 1.344.27L297 98.334l.115-14.073c0-.5.308-.94.768-1.133a1.206 1.206 0 0 1 1.344.27l10.406 10.194.096-13.862c0-.48.288-.921.73-1.132.44-.192.96-.135 1.324.191l11.154 9.677.538-13.92c.02-.48.326-.92.768-1.113.46-.192.979-.096 1.325.25l10.232 9.599.23-13.439c0-.5.308-.94.788-1.133.46-.192.998-.076 1.344.27l5.299 5.298c.48.48.48 1.286 0 1.766s-1.287.48-1.767 0l-3.225-3.225-.23 13.304c0 .5-.308.941-.768 1.133-.461.192-.98.096-1.344-.23l-10.29-9.657-.538 13.784c-.02.48-.307.903-.749 1.095-.442.192-.96.115-1.305-.212l-11.078-9.618-.096 14.092c0 .499-.307.96-.768 1.152-.46.192-.998.096-1.344-.27L299.554 87.18l-.116 14.111c0 .5-.307.96-.767 1.152a1.28 1.28 0 0 1-1.364-.269l-10.424-10.348-.461 15.205c-.02.5-.326.922-.768 1.114-.46.192-.98.096-1.344-.25l-11.634-11.154-.173 15.378c0 .5-.307.96-.768 1.133-.46.192-.998.077-1.344-.269l-11.365-11.346-.135 16.242c0 .499-.307.94-.768 1.132a1.21 1.21 0 0 1-1.344-.268l-11.999-11.75-.46 16.952c-.02.5-.327.941-.787 1.133a1.241 1.241 0 0 1-1.344-.269l-12.614-12.479-.307 17.624c0 .5-.307.941-.768 1.133a1.167 1.167 0 0 1-.48.115zM376.674 234.51a.996.996 0 0 1-.46-.097c-.634-.25-.96-.979-.692-1.612l25.668-64.565 7.008-57.576a1.249 1.249 0 0 1 1.382-1.094c.691.076 1.171.71 1.094 1.382l-7.026 57.73c-.02.115-.039.21-.077.307l-25.726 64.718c-.211.5-.672.806-1.171.806z" fill="#415469"/></g><path d="M434.557 232.205c-.441 0-.883-.25-1.113-.672L400.71 169.12a1.26 1.26 0 0 1 .519-1.69 1.26 1.26 0 0 1 1.69.52l32.733 62.413a1.26 1.26 0 0 1-.519 1.69 1.04 1.04 0 0 1-.576.153z" fill="#415469" fill-rule="nonzero"/><g fill-rule="nonzero"><path d="M407.123 169.868c.115 3.245-2.65 5.894-5.933 5.568a5.438 5.438 0 0 1-4.857-4.858c-.307-3.283 2.323-6.047 5.568-5.932 2.841.096 5.126 2.4 5.222 5.222z" fill="#5DB0E1"/><path d="M401.709 176.703c-.212 0-.423-.02-.634-.039a6.671 6.671 0 0 1-5.99-5.99c-.173-1.92.461-3.82 1.786-5.202 1.305-1.402 3.167-2.15 5.087-2.093a6.667 6.667 0 0 1 6.432 6.431 6.697 6.697 0 0 1-2.093 5.088 6.71 6.71 0 0 1-4.588 1.805zm.019-10.81c-1.152 0-2.246.48-3.033 1.306a4.144 4.144 0 0 0-1.114 3.264c.192 1.978 1.766 3.552 3.724 3.725a4.144 4.144 0 0 0 3.264-1.114 4.216 4.216 0 0 0 1.306-3.187c-.077-2.188-1.843-3.955-4.013-4.012-.038.019-.096.019-.134.019z" fill="#415469"/></g><g fill-rule="nonzero"><path fill="#BCBC8A" d="M344.152 180.241H303.24v-39.05h40.912z"/><path d="M344.152 181.483H303.24a1.245 1.245 0 0 1-1.248-1.248v-39.05c0-.69.557-1.247 1.248-1.247h40.912c.69 0 1.248.556 1.248 1.248v39.05c0 .69-.576 1.247-1.248 1.247zm-39.684-2.496h38.417v-36.554h-38.417v36.554z" fill="#0445A5"/><path fill="#DDDCB1" d="M344.149 148.234h-40.816v-7.046h40.816z"/><path d="M344.152 149.48h-40.816a1.245 1.245 0 0 1-1.248-1.249v-7.045c0-.692.557-1.248 1.248-1.248h40.816c.69 0 1.248.556 1.248 1.248v7.045c0 .691-.576 1.248-1.248 1.248zm-39.588-2.497h38.32v-4.55h-38.32v4.55z" fill="#415469"/><path fill="#DDDCB1" d="M344.149 180.229h-40.816v-7.046h40.816z"/><path d="M344.152 181.483h-40.816a1.245 1.245 0 0 1-1.248-1.248v-7.046c0-.69.557-1.248 1.248-1.248h40.816c.69 0 1.248.557 1.248 1.248v7.046c0 .691-.576 1.248-1.248 1.248zm-39.588-2.496h38.32v-4.55h-38.32v4.55z" fill="#415469"/><path fill="#DDDCB1" d="M344.145 148.23v24.863h-7.046V148.23z"/><path d="M344.152 174.341h-7.046a1.245 1.245 0 0 1-1.248-1.248v-24.862c0-.69.557-1.248 1.248-1.248h7.046c.69 0 1.248.557 1.248 1.248v24.862c0 .327-.135.653-.365.883-.23.23-.557.365-.883.365zm-5.798-2.496h4.55V149.48h-4.55v22.366z" fill="#415469"/><path fill="#DDDCB1" d="M310.47 148.233v24.862h-7.046v-24.862z"/><path d="M310.478 174.341h-7.046a1.245 1.245 0 0 1-1.248-1.248v-24.862c0-.326.134-.652.365-.883.23-.23.556-.365.883-.365h7.046c.69 0 1.247.557 1.247 1.248v24.862c0 .327-.134.653-.364.883-.23.23-.557.365-.883.365zm-5.798-2.496h4.55V149.48h-4.55v22.366z" fill="#415469"/><path d="M337.183 152.954l-20.197 20.197h-6.47v-5.395l19.486-19.486h7.142s.173 4.684.039 4.684z" fill="#DDDCB1"/><path d="M316.986 174.399h-6.47a1.245 1.245 0 0 1-1.248-1.248v-5.395c0-.326.134-.653.365-.883l19.486-19.486c.23-.23.557-.365.883-.365h7.142c.672 0 1.229.537 1.248 1.19.192 5.088.135 5.165-.288 5.587a.24.24 0 0 1-.077.057l-20.158 20.159c-.23.269-.557.384-.883.384zm-5.222-2.496h4.703l19.525-19.525c0-.576-.019-1.708-.057-2.86h-5.414l-18.757 18.757v3.628zm25.419-20.197z" fill="#415469"/></g><g fill-rule="nonzero"><path fill="#BCBC8A" d="M590.933 369.557h-40.912v-39.05h40.912z"/><path d="M590.929 370.8h-40.912a1.245 1.245 0 0 1-1.248-1.249v-39.05c0-.69.557-1.247 1.248-1.247h40.912c.69 0 1.248.556 1.248 1.248v39.05c0 .69-.557 1.247-1.248 1.247zm-39.664-2.497h38.416V331.75h-38.416v36.554z" fill="#0445A5"/><path fill="#DDDCB1" d="M590.93 337.55h-40.816v-7.046h40.816z"/><path d="M590.929 338.795h-40.816a1.245 1.245 0 0 1-1.248-1.248v-7.045c0-.692.557-1.248 1.248-1.248h40.816c.69 0 1.248.556 1.248 1.248v7.045c0 .692-.557 1.248-1.248 1.248zM551.36 336.3h38.32v-4.55h-38.32v4.55z" fill="#415469"/><path fill="#DDDCB1" d="M590.93 369.545h-40.816v-7.046h40.816z"/><path d="M590.929 370.8h-40.816a1.245 1.245 0 0 1-1.248-1.249v-7.046c0-.69.557-1.248 1.248-1.248h40.816c.69 0 1.248.557 1.248 1.248v7.046c0 .691-.557 1.248-1.248 1.248zm-39.568-2.497h38.32v-4.55h-38.32v4.55z" fill="#415469"/><path fill="#DDDCB1" d="M590.934 337.535v24.862h-7.046v-24.862z"/><path d="M590.948 363.657h-7.046a1.245 1.245 0 0 1-1.248-1.248v-24.862c0-.326.135-.652.365-.883.23-.23.557-.365.883-.365h7.046c.691 0 1.248.557 1.248 1.248v24.862c0 .327-.135.653-.365.884-.23.23-.557.364-.883.364zm-5.817-2.495h4.55v-22.367h-4.55v22.367z" fill="#415469"/><path fill="#DDDCB1" d="M557.258 337.537v24.862h-7.046v-24.862z"/><path d="M557.255 363.657h-7.046a1.245 1.245 0 0 1-1.248-1.248v-24.862c0-.326.134-.652.365-.883.23-.23.556-.365.883-.365h7.046c.69 0 1.248.557 1.248 1.248v24.862c0 .692-.557 1.248-1.248 1.248zm-5.798-2.495h4.55v-22.367h-4.55v22.367z" fill="#415469"/><path d="M583.979 342.27l-20.216 20.197h-6.47v-5.395l19.486-19.486h7.142s.192 4.684.058 4.684z" fill="#DDDCB1"/><path d="M563.763 363.715h-6.47a1.245 1.245 0 0 1-1.248-1.248v-5.395c0-.326.135-.653.365-.883l19.486-19.486c.23-.23.557-.365.883-.365h7.142c.672 0 1.229.537 1.248 1.19.192 5.088.135 5.165-.288 5.587a.256.256 0 0 1-.077.058l-20.158 20.158c-.23.269-.538.384-.883.384zm-5.222-2.496h4.704l19.524-19.525c0-.576-.019-1.708-.057-2.86h-5.414L558.54 357.59v3.628zm25.438-20.197z" fill="#415469"/></g><g fill-rule="nonzero"><path fill="#BCBC8A" d="M590.645 329.513h-40.912v-39.05h40.912z"/><path d="M590.64 330.77h-40.91a1.245 1.245 0 0 1-1.248-1.248v-39.05c0-.69.557-1.247 1.248-1.247h40.912c.69 0 1.248.557 1.248 1.248v39.05c0 .69-.557 1.247-1.248 1.247zm-39.663-2.495h38.416V291.72h-38.416v36.554z" fill="#0445A5"/><path fill="#DDDCB1" d="M590.642 297.506h-40.816v-7.046h40.816z"/><path d="M590.64 298.766h-40.815a1.245 1.245 0 0 1-1.248-1.247v-7.046c0-.691.557-1.248 1.248-1.248h40.816c.69 0 1.248.557 1.248 1.248v7.046c0 .69-.557 1.247-1.248 1.247zm-39.567-2.495h38.32v-4.55h-38.32v4.55z" fill="#415469"/><path fill="#DDDCB1" d="M590.642 329.52h-40.816v-7.046h40.816z"/><path d="M590.64 330.77h-40.815a1.245 1.245 0 0 1-1.248-1.248v-7.045c0-.692.557-1.248 1.248-1.248h40.816c.69 0 1.248.556 1.248 1.248v7.045c0 .692-.557 1.248-1.248 1.248zm-39.567-2.495h38.32v-4.55h-38.32v4.55z" fill="#415469"/><path fill="#DDDCB1" d="M590.648 297.508v24.862h-7.046v-24.862z"/><path d="M583.595 323.629c-.326 0-.653-.135-.883-.365a1.266 1.266 0 0 1-.365-.883v-24.862c0-.327.134-.653.365-.884.23-.23.557-.364.883-.364h7.046c.69 0 1.248.556 1.248 1.248v24.862c0 .69-.557 1.248-1.248 1.248h-7.046zm1.248-24.863v22.367h4.55v-22.367h-4.55z" fill="#415469"/><path fill="#DDDCB1" d="M556.972 297.51v24.862h-7.046V297.51z"/><path d="M549.92 323.629c-.326 0-.652-.135-.882-.365a1.266 1.266 0 0 1-.365-.883v-24.862c0-.327.134-.653.365-.884.23-.23.556-.364.883-.364h7.046c.69 0 1.248.556 1.248 1.248v24.862c0 .69-.557 1.248-1.248 1.248h-7.046zm1.249-24.863v22.367h4.55v-22.367h-4.55z" fill="#415469"/><path d="M583.69 302.241l-20.215 20.216h-6.47v-5.394l19.486-19.487h7.142c0-.019.192 4.665.058 4.665z" fill="#DDDCB1"/><path d="M563.475 323.705h-6.47a1.245 1.245 0 0 1-1.248-1.248v-5.394c0-.327.135-.653.365-.883l19.486-19.487c.23-.23.557-.365.883-.365h7.142c.672 0 1.229.538 1.248 1.19.192 5.088.135 5.165-.288 5.587a.265.265 0 0 1-.077.058l-20.158 20.158c-.23.25-.538.384-.883.384zm-5.222-2.495h4.704l19.524-19.525c0-.576-.019-1.709-.057-2.86h-5.414l-18.757 18.756v3.629zm25.438-20.216z" fill="#415469"/></g><g fill-rule="nonzero"><path fill="#FEFFFD" d="M86.393 341.483h120.701v7.91h-120.7z"/><path d="M207.094 350.64h-120.7a1.245 1.245 0 0 1-1.249-1.247v-7.91c0-.691.557-1.248 1.248-1.248h120.7c.692 0 1.249.557 1.249 1.248v7.91c0 .691-.557 1.248-1.248 1.248zM87.64 348.146h118.205v-5.414H87.64v5.414z" fill="#0445A5"/><path d="M225.198 368.726H72.282c-5.567 0-10.079-4.512-10.079-10.08 0-5.567 4.512-10.079 10.08-10.079h152.915c5.568 0 10.08 4.512 10.08 10.08 0 5.567-4.532 10.079-10.08 10.079z" fill="#5DB0E1"/><path d="M225.198 369.974H72.282c-6.24 0-11.327-5.088-11.327-11.327 0-6.24 5.088-11.328 11.327-11.328h152.916c6.24 0 11.327 5.088 11.327 11.328 0 6.239-5.088 11.327-11.327 11.327zM72.282 349.815a8.833 8.833 0 0 0-8.831 8.832 8.833 8.833 0 0 0 8.831 8.83h152.916a8.833 8.833 0 0 0 8.831-8.83 8.833 8.833 0 0 0-8.831-8.832H72.282z" fill="#415469"/><g transform="translate(66.619 351.908)"><circle fill="#FFF" cx="6.835" cy="6.681" r="5.433"/><path d="M6.835 13.362a6.686 6.686 0 0 1-6.681-6.68A6.686 6.686 0 0 1 6.834 0a6.686 6.686 0 0 1 6.682 6.681 6.686 6.686 0 0 1-6.681 6.681zm0-10.885a4.195 4.195 0 0 0-4.186 4.185 4.195 4.195 0 0 0 4.186 4.185 4.195 4.195 0 0 0 4.185-4.185 4.195 4.195 0 0 0-4.185-4.185z" fill="#415469"/></g><g transform="translate(96.568 351.908)"><circle fill="#FFF" cx="6.835" cy="6.681" r="5.433"/><path d="M6.835 13.362a6.686 6.686 0 0 1-6.681-6.68A6.686 6.686 0 0 1 6.834 0a6.686 6.686 0 0 1 6.682 6.681 6.686 6.686 0 0 1-6.681 6.681zm0-10.885a4.195 4.195 0 0 0-4.186 4.185 4.195 4.195 0 0 0 4.186 4.185 4.195 4.195 0 0 0 4.185-4.185 4.195 4.195 0 0 0-4.185-4.185z" fill="#0445A5"/></g><g transform="translate(126.518 351.908)"><circle fill="#FFF" cx="6.835" cy="6.681" r="5.433"/><path d="M6.835 13.362a6.686 6.686 0 0 1-6.681-6.68A6.686 6.686 0 0 1 6.834 0a6.686 6.686 0 0 1 6.682 6.681 6.686 6.686 0 0 1-6.681 6.681zm0-10.885a4.195 4.195 0 0 0-4.186 4.185 4.195 4.195 0 0 0 4.186 4.185 4.195 4.195 0 0 0 4.185-4.185 4.195 4.195 0 0 0-4.185-4.185z" fill="#415469"/></g><g transform="translate(156.467 351.908)"><circle fill="#FFF" cx="6.835" cy="6.681" r="5.433"/><path d="M6.835 13.362a6.686 6.686 0 0 1-6.681-6.68A6.686 6.686 0 0 1 6.834 0a6.686 6.686 0 0 1 6.682 6.681 6.686 6.686 0 0 1-6.681 6.681zm0-10.885a4.195 4.195 0 0 0-4.186 4.185 4.195 4.195 0 0 0 4.186 4.185 4.195 4.195 0 0 0 4.185-4.185 4.195 4.195 0 0 0-4.185-4.185z" fill="#415469"/></g><g transform="translate(186.417 351.908)"><circle fill="#FFF" cx="6.835" cy="6.681" r="5.433"/><path d="M6.835 13.362a6.686 6.686 0 0 1-6.681-6.68A6.686 6.686 0 0 1 6.834 0a6.686 6.686 0 0 1 6.682 6.681 6.686 6.686 0 0 1-6.681 6.681zm0-10.885a4.195 4.195 0 0 0-4.186 4.185 4.195 4.195 0 0 0 4.186 4.185 4.195 4.195 0 0 0 4.185-4.185 4.195 4.195 0 0 0-4.185-4.185z" fill="#415469"/></g><g transform="translate(216.367 351.908)"><circle fill="#FFF" cx="6.835" cy="6.681" r="5.433"/><path d="M6.835 13.362a6.686 6.686 0 0 1-6.681-6.68A6.686 6.686 0 0 1 6.834 0a6.686 6.686 0 0 1 6.682 6.681 6.686 6.686 0 0 1-6.681 6.681zm0-10.885a4.195 4.195 0 0 0-4.186 4.185 4.195 4.195 0 0 0 4.186 4.185 4.195 4.195 0 0 0 4.185-4.185 4.195 4.195 0 0 0-4.185-4.185z" fill="#415469"/></g><path d="M235.988 314.586h-72.84v-54.927a9.652 9.652 0 0 0-9.656-9.657H108.26c-25.419 0-46.019 20.6-46.019 46.02l.173 29.776h173.574v-11.212z" fill="#F7B318"/><path d="M235.988 327.027H62.414a1.245 1.245 0 0 1-1.248-1.248l-.172-29.777c0-12.633 4.914-24.497 13.842-33.425 8.927-8.927 20.792-13.842 33.424-13.842h45.232c6.009 0 10.904 4.896 10.904 10.905v53.679h71.592c.69 0 1.247.557 1.247 1.248v11.193a1.25 1.25 0 0 1-1.247 1.267zM63.662 324.53H234.74v-8.697h-71.591a1.245 1.245 0 0 1-1.248-1.248v-54.927a8.406 8.406 0 0 0-8.41-8.409h-45.23c-24.69 0-44.772 20.082-44.772 44.771l.173 28.51z" fill="#415469"/><path d="M62.414 325.779l.02 2.63a13.044 13.044 0 0 0 13.054 13.055h147.445a13.044 13.044 0 0 0 13.055-13.055v-2.63H62.414z" fill="#DB9B1D"/><path d="M222.933 342.712H75.488c-7.89 0-14.302-6.413-14.302-14.303l-.02-2.611c0-.326.135-.653.365-.883.23-.23.557-.365.883-.365h173.574c.69 0 1.247.557 1.247 1.248v2.63c0 7.871-6.412 14.284-14.302 14.284zM63.68 327.027v1.363c0 6.508 5.3 11.807 11.807 11.807h147.445c6.508 0 11.807-5.299 11.807-11.807v-1.383H63.68v.02z" fill="#415469"/></g><g fill-rule="nonzero"><path d="M127.92 305.467H71.744v-9.542c0-20.869 16.914-37.782 37.782-37.782h18.392v47.324z" fill="#FFF"/><path d="M127.92 306.715H71.744a1.245 1.245 0 0 1-1.248-1.248v-9.542c0-21.521 17.509-39.03 39.03-39.03h18.392c.692 0 1.248.556 1.248 1.248v47.324c0 .69-.556 1.248-1.248 1.248zm-54.927-2.496h53.698V259.39h-17.145c-20.158 0-36.534 16.396-36.534 36.535v8.294h-.02z" fill="#415469"/></g><g fill-rule="nonzero"><path d="M144.795 279.99a9.652 9.652 0 0 1-9.657-9.656v-2.65a9.652 9.652 0 0 1 9.657-9.657 9.652 9.652 0 0 1 9.657 9.657v2.65a9.652 9.652 0 0 1-9.657 9.656z" fill="#FFF"/><path d="M144.795 281.238c-6.01 0-10.905-4.895-10.905-10.904v-2.65c0-6.009 4.896-10.905 10.905-10.905 6.009 0 10.905 4.896 10.905 10.905v2.65c0 6.028-4.896 10.904-10.905 10.904zm0-21.982c-4.646 0-8.41 3.782-8.41 8.409v2.65c0 4.645 3.783 8.408 8.41 8.408 4.646 0 8.409-3.782 8.409-8.409v-2.649c0-4.627-3.782-8.409-8.41-8.409z" fill="#415469"/></g><g fill-rule="nonzero"><path d="M144.795 305.62a9.652 9.652 0 0 1-9.657-9.656 9.652 9.652 0 0 1 9.657-9.657 9.652 9.652 0 0 1 9.657 9.657 9.652 9.652 0 0 1-9.657 9.656z" fill="#FFF"/><path d="M144.795 306.868c-6.01 0-10.905-4.895-10.905-10.904 0-6.01 4.896-10.905 10.905-10.905 6.009 0 10.905 4.895 10.905 10.905 0 6.009-4.896 10.904-10.905 10.904zm0-19.313c-4.646 0-8.41 3.782-8.41 8.409 0 4.646 3.783 8.408 8.41 8.408 4.646 0 8.409-3.782 8.409-8.408 0-4.647-3.782-8.41-8.41-8.41z" fill="#415469"/></g><path d="M389.345 97.605a1.41 1.41 0 0 1-.48-.096 1.258 1.258 0 0 1-.768-1.152v-13.63l-9.062 9.06a1.243 1.243 0 0 1-1.363.27 1.258 1.258 0 0 1-.768-1.152V76.602l-9.445 9.446c-.48.48-1.287.48-1.767 0a1.263 1.263 0 0 1 0-1.767l11.577-11.576a1.247 1.247 0 0 1 2.131.883V87.91l9.062-9.062c.364-.365.902-.46 1.363-.269.46.192.768.653.768 1.152v13.631l7.948-7.948c.48-.48 1.286-.48 1.766 0s.48 1.286 0 1.766l-10.079 10.08c-.23.23-.557.345-.883.345z" fill="#415469" fill-rule="nonzero"/><g fill-rule="nonzero"><path fill="#FFF" d="M302.126 337.048l-9.618 9.388v2.342h5.702l12.767-11.73z"/><path d="M298.21 350.026h-5.702a1.245 1.245 0 0 1-1.248-1.248v-2.342c0-.345.134-.652.384-.902l9.618-9.388c.23-.23.538-.346.864-.346h8.85c.52 0 .98.308 1.172.787a1.22 1.22 0 0 1-.327 1.364l-12.767 11.73a1.19 1.19 0 0 1-.844.345zm-4.454-2.495h3.974l10.04-9.235h-5.145l-8.888 8.678v.557h.019z" fill="#415469"/><path fill="#F7B318" d="M292.508 337.048v9.388l9.618-9.388z"/><path d="M292.508 347.684c-.173 0-.327-.038-.48-.096a1.258 1.258 0 0 1-.768-1.152v-9.388c0-.69.557-1.248 1.248-1.248h9.618c.5 0 .96.308 1.152.768a1.244 1.244 0 0 1-.288 1.363l-9.618 9.388c-.23.23-.557.365-.864.365zm1.248-9.388v5.184l5.318-5.184h-5.318z" fill="#415469"/><path fill="#F7B318" d="M310.977 337.048l-12.767 11.73h9.004l13.016-11.73z"/><path d="M307.214 350.026h-9.004a1.25 1.25 0 0 1-1.171-.787 1.218 1.218 0 0 1 .326-1.363l12.767-11.73a1.26 1.26 0 0 1 .845-.326h9.253c.519 0 .98.326 1.171.806.192.48.058 1.037-.326 1.382l-13.016 11.73c-.25.173-.538.288-.845.288zm-5.798-2.495h5.318l10.252-9.235h-5.51l-10.06 9.235z" fill="#415469"/><path fill="#FFF" d="M347.377 337.048h-7.372l-12 11.73h9.35l10.022-9.752z"/><path d="M337.355 350.026h-9.35c-.498 0-.96-.307-1.151-.768a1.245 1.245 0 0 1 .288-1.363l11.999-11.73c.23-.23.537-.365.864-.365h7.372c.691 0 1.248.557 1.248 1.248v1.997c0 .345-.134.653-.384.902l-10.022 9.753c-.23.192-.537.326-.864.326zm-6.277-2.495h5.778l9.273-9.024v-.21h-5.606l-9.445 9.234z" fill="#415469"/><path fill="#F7B318" d="M347.377 339.026l-10.022 9.752h10.022z"/><path d="M347.377 350.026h-10.022c-.499 0-.96-.307-1.151-.787a1.237 1.237 0 0 1 .287-1.363l10.022-9.753a1.275 1.275 0 0 1 1.363-.25c.46.193.768.654.768 1.153v9.752a1.287 1.287 0 0 1-1.267 1.248zm-6.95-2.495h5.702v-5.549l-5.702 5.549z" fill="#415469"/><path fill="#F7B318" d="M330.425 337.048l-12.134 11.73h9.715l11.999-11.73z"/><path d="M328.006 350.026h-9.715c-.499 0-.96-.307-1.152-.787a1.237 1.237 0 0 1 .288-1.363l12.134-11.73c.23-.23.537-.346.864-.346h9.58c.499 0 .96.308 1.152.768a1.244 1.244 0 0 1-.288 1.363l-12 11.73c-.23.231-.537.365-.863.365zm-6.643-2.495h6.124l9.446-9.235h-6.01l-9.56 9.235z" fill="#415469"/><path fill="#FFF" d="M320.23 337.048l-13.016 11.73h11.077l12.134-11.73z"/><path d="M318.291 350.026h-11.077a1.27 1.27 0 0 1-1.171-.806 1.248 1.248 0 0 1 .326-1.382l13.017-11.73c.23-.212.518-.327.844-.327h10.195c.499 0 .96.307 1.152.787.192.48.076 1.018-.288 1.363l-12.134 11.73c-.23.231-.537.365-.864.365zm-7.833-2.495h7.334l9.561-9.235h-6.643l-10.252 9.235zm-18.738 21.387a.996.996 0 0 1-.46-.096c-.634-.25-.96-.98-.71-1.613l7.333-18.642c.25-.633.98-.96 1.613-.71.634.25.96.98.71 1.613l-7.333 18.641c-.173.5-.653.807-1.152.807z" fill="#415469"/><path d="M307.175 368.918a1.29 1.29 0 0 1-1.17-.787l-7.334-18.642a1.24 1.24 0 0 1 .71-1.613 1.24 1.24 0 0 1 1.613.71l7.333 18.642a1.24 1.24 0 0 1-.71 1.613 1.777 1.777 0 0 1-.442.077zm23.461 0a.996.996 0 0 1-.46-.096c-.634-.25-.96-.98-.711-1.613l7.334-18.642c.25-.633.979-.96 1.612-.71.634.25.96.98.71 1.613l-7.333 18.641c-.192.5-.653.807-1.152.807z" fill="#415469"/><path d="M346.072 368.918c-.5 0-.96-.307-1.172-.787l-7.333-18.642a1.24 1.24 0 0 1 .71-1.613 1.24 1.24 0 0 1 1.613.71l7.333 18.642a1.24 1.24 0 0 1-.71 1.613 1.635 1.635 0 0 1-.441.077z" fill="#415469"/></g><g fill-rule="nonzero"><g transform="translate(0 273.77)"><circle fill="#91C64E" cx="33.597" cy="33.521" r="32.253"/><path d="M33.597 67.022C15.128 67.022.096 51.989.096 33.52.096 15.05 15.128.019 33.597.019 52.067.02 67.1 15.052 67.1 33.521c0 18.468-15.033 33.5-33.502 33.5zm0-64.507c-17.106 0-31.005 13.9-31.005 31.006 0 17.105 13.9 31.005 31.005 31.005 17.106 0 31.006-13.9 31.006-31.005 0-17.106-13.9-31.006-31.006-31.006z" fill="#415469"/></g><path d="M33.732 373.468a1.245 1.245 0 0 1-1.248-1.248v-64.027c0-.691.557-1.248 1.248-1.248.69 0 1.248.557 1.248 1.248v64.027c0 .672-.557 1.248-1.248 1.248z" fill="#415469"/><path d="M33.213 330.175c-.326 0-.633-.115-.883-.365l-15.685-15.685a1.263 1.263 0 0 1 0-1.766c.48-.48 1.286-.48 1.766 0l15.685 15.685c.48.48.48 1.286 0 1.766-.25.23-.556.365-.883.365z" fill="#415469"/></g><g fill-rule="nonzero"><g transform="translate(218.479 295.08)"><circle fill="#94D13D" cx="25.803" cy="25.841" r="24.459"/><path d="M25.803 51.548C11.634 51.548.096 40.01.096 25.84.096 11.673 11.634.134 25.803.134c14.168 0 25.706 11.539 25.706 25.707 0 14.169-11.538 25.707-25.706 25.707zm0-48.918c-12.806 0-23.211 10.406-23.211 23.211 0 12.806 10.405 23.211 23.21 23.211 12.806 0 23.212-10.405 23.212-23.21 0-12.806-10.406-23.212-23.211-23.212z" fill="#415469"/></g><path d="M244.377 369.724a1.245 1.245 0 0 1-1.248-1.248v-46.883c0-.69.557-1.247 1.248-1.247s1.248.556 1.248 1.247v46.883c0 .691-.557 1.248-1.248 1.248z" fill="#415469"/><path d="M243.993 338.565c-.326 0-.633-.115-.883-.365l-11.884-11.884a1.263 1.263 0 0 1 0-1.766c.48-.48 1.287-.48 1.767 0l11.883 11.884c.48.48.48 1.286 0 1.766a1.25 1.25 0 0 1-.883.365z" fill="#415469"/></g><g fill-rule="nonzero"><g transform="translate(712.071 299.304)"><circle fill="#94D13D" cx="24.286" cy="24.19" r="22.942"/><path d="M24.286 48.38C10.943 48.38.096 37.533.096 24.19.096 10.847 10.943 0 24.286 0c13.343 0 24.19 10.847 24.19 24.19 0 13.343-10.847 24.19-24.19 24.19zm0-45.865c-11.96 0-21.694 9.734-21.694 21.694 0 11.96 9.733 21.695 21.694 21.695 11.96 0 21.694-9.734 21.694-21.695 0-11.96-9.733-21.694-21.694-21.694z" fill="#415469"/></g><path d="M736.453 369.36a1.245 1.245 0 0 1-1.248-1.249v-43.964c0-.691.557-1.248 1.248-1.248s1.248.557 1.248 1.248v43.964c0 .691-.557 1.248-1.248 1.248z" fill="#415469"/><path d="M736.088 340.14a1.22 1.22 0 0 1-.883-.366l-11.154-11.154a1.263 1.263 0 0 1 0-1.766c.48-.48 1.286-.48 1.766 0l11.154 11.154c.48.48.48 1.286 0 1.766-.25.23-.576.365-.883.365z" fill="#415469"/></g><g fill-rule="nonzero"><path d="M751.697 283.158c0 23.845-19.314 43.158-43.158 43.158-23.845 0-43.159-19.313-43.159-43.158 0-23.844 43.159-77.35 43.159-77.35s43.158 53.506 43.158 77.35z" fill="#91C64E"/><path d="M708.539 327.564c-11.865 0-23.02-4.627-31.41-12.997-8.389-8.39-12.997-19.544-12.997-31.409 0-10.137 7.334-26.379 21.79-48.303 10.694-16.223 21.541-29.7 21.657-29.835.23-.288.595-.46.979-.46s.73.172.979.46c.115.135 10.943 13.612 21.656 29.835 14.456 21.924 21.79 38.166 21.79 48.303 0 11.865-4.627 23.02-12.997 31.409-8.448 8.37-19.583 12.997-31.447 12.997zm0-119.74c-6.374 8.101-41.91 54.197-41.91 75.334 0 23.115 18.795 41.91 41.91 41.91 23.114 0 41.91-18.795 41.91-41.91 0-21.157-35.537-67.233-41.91-75.335z" fill="#415469"/><path d="M708.711 368.323a1.245 1.245 0 0 1-1.248-1.248v-82.727c0-.69.557-1.247 1.248-1.247s1.248.556 1.248 1.247v82.727c0 .69-.557 1.248-1.248 1.248z" fill="#415469"/><path d="M708.02 313.357c-.326 0-.633-.115-.883-.364l-20.984-20.984a1.263 1.263 0 0 1 0-1.767c.48-.48 1.286-.48 1.766 0l20.984 20.984c.48.48.48 1.287 0 1.767-.25.23-.556.364-.883.364z" fill="#415469"/></g><g fill="#415469" fill-rule="nonzero"><path d="M506.647 299.707H479.77a1.245 1.245 0 0 1-1.248-1.248v-12.267c0-.692.556-1.248 1.248-1.248.69 0 1.248.556 1.248 1.248v11.02H505.4v-11.02c0-.692.556-1.248 1.247-1.248.692 0 1.248.556 1.248 1.248v12.267c0 .691-.556 1.248-1.248 1.248z"/><path d="M506.647 311.975H479.77a1.245 1.245 0 0 1-1.248-1.248V298.46c0-.69.556-1.248 1.248-1.248h26.877c.692 0 1.248.557 1.248 1.248v12.268c0 .691-.556 1.248-1.248 1.248zm-25.63-2.496H505.4v-9.772h-24.382v9.772z"/><path d="M506.647 324.262H479.77a1.245 1.245 0 0 1-1.248-1.248v-12.268c0-.69.556-1.248 1.248-1.248h26.877c.692 0 1.248.557 1.248 1.248v12.268c0 .672-.556 1.248-1.248 1.248zm-25.63-2.496H505.4v-9.791h-24.382v9.791z"/><path d="M506.647 336.53H479.77a1.245 1.245 0 0 1-1.248-1.248v-12.268c0-.691.556-1.248 1.248-1.248h26.877c.692 0 1.248.557 1.248 1.248v12.268c0 .691-.556 1.248-1.248 1.248zm-25.63-2.496H505.4v-9.772h-24.382v9.772z"/><path d="M506.647 348.702H479.77a1.245 1.245 0 0 1-1.248-1.248v-12.268c0-.691.556-1.248 1.248-1.248h26.877c.692 0 1.248.557 1.248 1.248v12.268c0 .69-.556 1.248-1.248 1.248zm-25.63-2.496H505.4v-9.772h-24.382v9.772z"/><path d="M506.647 361.18H479.77a1.245 1.245 0 0 1-1.248-1.247v-12.268c0-.691.556-1.248 1.248-1.248h26.877c.692 0 1.248.557 1.248 1.248v12.268c0 .691-.556 1.248-1.248 1.248zm-25.63-2.495H505.4v-9.772h-24.382v9.772z"/><path d="M506.647 373.449a1.245 1.245 0 0 1-1.247-1.248v-11.02h-24.382v11.02c0 .69-.557 1.248-1.248 1.248a1.245 1.245 0 0 1-1.248-1.248v-12.268c0-.691.556-1.248 1.248-1.248h26.877c.692 0 1.248.557 1.248 1.248V372.2c0 .69-.556 1.248-1.248 1.248z"/></g><path fill="#415469" fill-rule="nonzero" d="M126.671 298.114h2.496v27.55h-2.496zm-56.174 0h2.496v27.55h-2.496zm48.86 17.163h-7.296a1.245 1.245 0 0 1-1.247-1.248c0-.69.556-1.248 1.247-1.248h7.296c.691 0 1.248.557 1.248 1.248s-.557 1.248-1.248 1.248z"/><g fill-rule="nonzero"><path d="M73.05 306.407a4.211 4.211 0 0 1-4.224-4.223v-10.175a4.211 4.211 0 0 1 4.224-4.224 4.211 4.211 0 0 1 4.224 4.224v10.175a4.211 4.211 0 0 1-4.224 4.223z" fill="#DB9B1D"/><path d="M73.05 307.655a5.481 5.481 0 0 1-5.471-5.471v-10.175a5.481 5.481 0 0 1 5.471-5.472 5.481 5.481 0 0 1 5.472 5.472v10.175a5.481 5.481 0 0 1-5.472 5.471zm0-18.622a2.99 2.99 0 0 0-2.976 2.976v10.175a2.99 2.99 0 0 0 2.976 2.976 2.99 2.99 0 0 0 2.976-2.976v-10.175a2.99 2.99 0 0 0-2.976-2.976z" fill="#415469"/></g><g fill-rule="nonzero"><path d="M519.875 372.873a3.007 3.007 0 0 1-3.014-3.015 3.007 3.007 0 0 1 3.014-3.014h16.05a3.007 3.007 0 0 1 3.014 3.014 3.007 3.007 0 0 1-3.014 3.015h-16.05z" fill="#FFF"/><path d="M535.944 368.092c.98 0 1.767.787 1.767 1.766 0 .98-.788 1.767-1.767 1.767h-16.05a1.762 1.762 0 0 1-1.766-1.767c0-.979.787-1.766 1.766-1.766h16.05zm0-2.496h-16.05a4.277 4.277 0 0 0-4.262 4.262 4.277 4.277 0 0 0 4.262 4.262h16.05a4.277 4.277 0 0 0 4.262-4.262 4.265 4.265 0 0 0-4.262-4.262z" fill="#415469"/><path fill="#F7B318" d="M521.162 365.616h13.515l-.845-4.627h-11.845z"/><path d="M534.677 366.863h-13.515c-.365 0-.73-.172-.96-.441-.23-.288-.346-.653-.27-1.018l.826-4.646a1.253 1.253 0 0 1 1.229-1.017h11.845c.596 0 1.114.441 1.23 1.017l.825 4.646a1.3 1.3 0 0 1-.269 1.018 1.19 1.19 0 0 1-.94.441zm-12.037-2.495h10.52l-.383-2.15h-9.753l-.384 2.15z" fill="#415469"/><path fill="#FFF" d="M530.934 344.804h-6.029l-.787 4.704h7.583z"/><path d="M531.701 350.756h-7.583a1.26 1.26 0 0 1-.96-.442 1.307 1.307 0 0 1-.288-1.017l.787-4.704a1.24 1.24 0 0 1 1.229-1.036h6.028a1.24 1.24 0 0 1 1.229 1.036l.787 4.704c.058.365-.038.73-.288 1.017-.23.288-.576.442-.94.442zm-6.105-2.496h4.646l-.364-2.208h-3.917l-.365 2.208z" fill="#415469"/><path fill="#F7B318" d="M532.181 351.946l-.48-2.476h-7.583l-.48 2.476-.576 3.11h9.715z"/><path d="M532.777 356.304h-9.715c-.365 0-.73-.172-.96-.46a1.339 1.339 0 0 1-.269-1.037l1.056-5.606a1.253 1.253 0 0 1 1.23-1.018h7.582c.596 0 1.114.423 1.23 1.018l.48 2.496.594 3.11c.077.365-.019.749-.268 1.037a1.28 1.28 0 0 1-.96.46zm-8.217-2.496h6.7l-.307-1.631-.288-1.479h-5.53l-.575 3.11z" fill="#415469"/><path fill="#FFF" d="M532.777 355.056h-9.715l-.576 3.149-.499 2.784h11.845l-.499-2.784z"/><path d="M533.832 362.237h-11.845c-.365 0-.73-.173-.96-.442-.23-.288-.345-.653-.269-1.017l1.056-5.914a1.253 1.253 0 0 1 1.229-1.017h9.714c.596 0 1.114.441 1.23 1.017l1.055 5.914a1.29 1.29 0 0 1-.269 1.017 1.224 1.224 0 0 1-.94.442zm-10.347-2.496h8.87l-.615-3.418h-7.622l-.633 3.418z" fill="#415469"/></g><g fill-rule="nonzero"><path d="M6.028 372.585a3.007 3.007 0 0 1-3.014-3.015 3.007 3.007 0 0 1 3.014-3.014h16.05a3.007 3.007 0 0 1 3.014 3.014 3.007 3.007 0 0 1-3.014 3.015H6.028z" fill="#FFF"/><path d="M22.097 367.804c.98 0 1.767.787 1.767 1.766 0 .98-.787 1.767-1.767 1.767H6.047a1.762 1.762 0 0 1-1.766-1.767c0-.979.787-1.766 1.767-1.766h16.05zm0-2.496H6.047a4.277 4.277 0 0 0-4.262 4.262 4.277 4.277 0 0 0 4.263 4.262h16.05a4.277 4.277 0 0 0 4.261-4.262 4.265 4.265 0 0 0-4.262-4.262z" fill="#415469"/><path fill="#F7B318" d="M7.315 365.328H20.83l-.844-4.627H8.14z"/><path d="M20.83 366.575H7.315c-.365 0-.73-.172-.96-.441-.23-.288-.346-.653-.27-1.018l.826-4.646a1.253 1.253 0 0 1 1.23-1.017h11.845a1.27 1.27 0 0 1 1.228 1.017l.826 4.646a1.3 1.3 0 0 1-.269 1.018 1.19 1.19 0 0 1-.94.441zM8.793 364.08h10.52l-.383-2.15H9.177l-.384 2.15z" fill="#415469"/><path fill="#FFF" d="M17.087 344.516h-6.029l-.787 4.704h7.584z"/><path d="M17.855 350.468H10.27a1.26 1.26 0 0 1-.96-.442 1.307 1.307 0 0 1-.288-1.017l.787-4.704a1.24 1.24 0 0 1 1.23-1.036h6.047a1.24 1.24 0 0 1 1.228 1.036l.787 4.704c.058.365-.038.73-.288 1.017a1.26 1.26 0 0 1-.96.442zm-6.106-2.496h4.646l-.364-2.208h-3.917l-.365 2.208z" fill="#415469"/><path fill="#F7B318" d="M18.335 351.658l-.48-2.476H10.27l-.48 2.476-.576 3.11h9.715z"/><path d="M18.93 356.016H9.215c-.365 0-.73-.172-.96-.46a1.339 1.339 0 0 1-.268-1.037l1.055-5.606a1.253 1.253 0 0 1 1.23-1.018h7.583c.595 0 1.113.423 1.228 1.018l.48 2.496.595 3.11c.077.365-.019.749-.268 1.037a1.28 1.28 0 0 1-.96.46zm-8.217-2.495h6.7l-.307-1.632-.288-1.479h-5.53l-.575 3.11z" fill="#415469"/><path fill="#FFF" d="M18.93 354.768H9.215l-.576 3.149-.499 2.784h11.846l-.5-2.784z"/><path d="M19.986 361.949H8.14c-.365 0-.73-.173-.96-.442-.23-.288-.345-.653-.269-1.017l1.056-5.914a1.253 1.253 0 0 1 1.23-1.017h9.713c.596 0 1.114.441 1.23 1.017l1.055 5.914a1.29 1.29 0 0 1-.269 1.017 1.224 1.224 0 0 1-.94.442zm-10.348-2.496h8.87l-.615-3.417h-7.622l-.633 3.417z" fill="#415469"/></g><g fill-rule="nonzero"><path d="M713.856 370.626a3.007 3.007 0 0 1-3.014-3.014 3.007 3.007 0 0 1 3.014-3.014h16.07a3.007 3.007 0 0 1 3.014 3.014 3.007 3.007 0 0 1-3.014 3.014h-16.07z" fill="#FFF"/><path d="M729.906 365.846c.98 0 1.767.787 1.767 1.766a1.76 1.76 0 0 1-1.767 1.766h-16.05c-.979 0-1.766-.787-1.766-1.766s.787-1.766 1.766-1.766h16.05zm0-2.496h-16.05a4.277 4.277 0 0 0-4.262 4.262 4.277 4.277 0 0 0 4.262 4.262h16.05a4.277 4.277 0 0 0 4.262-4.262c0-2.342-1.9-4.262-4.262-4.262z" fill="#415469"/><path fill="#F7B318" d="M715.124 363.37h13.515l-.844-4.627h-11.846z"/><path d="M728.64 364.617h-13.516c-.365 0-.73-.173-.96-.441-.23-.288-.346-.653-.27-1.018l.826-4.646a1.253 1.253 0 0 1 1.23-1.017h11.845a1.27 1.27 0 0 1 1.228 1.017l.826 4.646a1.3 1.3 0 0 1-.269 1.018 1.19 1.19 0 0 1-.94.441zm-12.019-2.496h10.52l-.383-2.15h-9.753l-.384 2.15z" fill="#415469"/><path fill="#FFF" d="M724.896 342.558h-6.029l-.787 4.704h7.603z"/><path d="M725.683 348.51h-7.584a1.26 1.26 0 0 1-.96-.442 1.307 1.307 0 0 1-.288-1.017l.788-4.704a1.24 1.24 0 0 1 1.228-1.037h6.029a1.24 1.24 0 0 1 1.228 1.037l.787 4.704c.058.364-.038.73-.288 1.017a1.19 1.19 0 0 1-.94.442zm-6.125-2.496h4.646l-.364-2.208h-3.917l-.365 2.208z" fill="#415469"/><path fill="#F7B318" d="M726.144 349.72l-.461-2.497h-7.603l-.46 2.496-.596 3.091h9.715z"/><path d="M726.739 354.077h-9.715a1.25 1.25 0 0 1-.96-.46 1.339 1.339 0 0 1-.268-1.037l1.055-5.606a1.253 1.253 0 0 1 1.23-1.018h7.583c.595 0 1.113.423 1.228 1.018l.48 2.496.595 3.11c.077.365-.019.749-.268 1.037-.25.287-.596.46-.96.46zm-8.217-2.496h6.7l-.595-3.11h-5.53l-.575 3.11z" fill="#415469"/><path fill="#FFF" d="M726.739 352.81h-9.715l-.576 3.149-.499 2.784h11.846l-.5-2.784z"/><path d="M727.795 359.99h-11.846c-.365 0-.73-.172-.96-.441-.23-.288-.345-.653-.269-1.018l1.056-5.913a1.253 1.253 0 0 1 1.229-1.017h9.714c.596 0 1.114.441 1.23 1.017l1.055 5.913c.058.365-.038.73-.269 1.018a1.195 1.195 0 0 1-.94.441zm-10.348-2.495h8.87l-.615-3.418h-7.622l-.633 3.418z" fill="#415469"/></g><circle fill="#FFF" fill-rule="nonzero" opacity=".381" cx="542.549" cy="138.037" r="35.133"/><g fill-rule="nonzero"><path fill="#BCBC8A" d="M657.931 349.661h5.376v18.565h-5.376z"/><path d="M663.307 369.474h-5.376a1.245 1.245 0 0 1-1.248-1.247v-18.565c0-.692.557-1.248 1.248-1.248h5.376c.691 0 1.248.556 1.248 1.248v18.565c0 .69-.557 1.247-1.248 1.247zm-4.128-2.495h2.88v-16.07h-2.88v16.07z" fill="#415469"/><path d="M614.946 350.487a1.29 1.29 0 0 1-.864-.345 1.335 1.335 0 0 1-.384-.884l-.672-48.821c0-.691.538-1.248 1.229-1.267l87.16-1.19c.327 0 .634.134.865.345.23.23.365.537.384.883l.672 48.822c0 .69-.538 1.248-1.229 1.267l-87.161 1.19z" fill="#BCBC8A"/><path d="M701.435 299.227l.672 48.822-87.161 1.19-.672-48.821 87.161-1.19zm0-2.496h-.038l-87.161 1.19a2.491 2.491 0 0 0-2.458 2.535l.672 48.822c0 .652.288 1.286.749 1.747.46.46 1.094.71 1.747.71h.038l87.161-1.19a2.491 2.491 0 0 0 2.458-2.534l-.672-48.822c0-.653-.288-1.286-.749-1.747a2.469 2.469 0 0 0-1.747-.71z" fill="#415469"/><path d="M622.28 350.391c-.327 0-.634-.134-.864-.345a1.335 1.335 0 0 1-.384-.884l-.672-48.821c0-.691.538-1.248 1.229-1.267l72.531-.98c.327 0 .634.135.864.346.23.23.365.538.384.883l.672 48.822c0 .691-.537 1.248-1.228 1.267-.02-.02-72.532.98-72.532.98z" fill="#DDDCB1"/><path d="M694.12 299.323l.672 48.822-72.512.98-.672-48.823 72.512-.979zm0-2.496h-.038l-72.513.98a2.491 2.491 0 0 0-2.457 2.534l.672 48.821c0 .653.288 1.287.749 1.748.46.46 1.094.71 1.747.71h.038l72.513-.98a2.491 2.491 0 0 0 2.457-2.533l-.672-48.822c0-.653-.288-1.286-.748-1.747a2.502 2.502 0 0 0-1.748-.71z" fill="#415469"/><path fill="#FFF" d="M620.419 305.209l75-1.022.533 39.084-75 1.022z"/><path d="M694.197 305.448l.5 36.592-72.513.979-.5-36.592 72.513-.98zm2.458-2.535l-2.496.039-72.513.979-2.496.038.039 2.496.499 36.592.038 2.496 2.496-.038 72.513-.98 2.496-.038-.039-2.496-.499-36.592-.038-2.496z" fill="#415469"/><g transform="translate(631.245 315.815)"><circle fill="#F8B400" transform="rotate(-34.682 21.587 3.995)" cx="21.587" cy="3.995" r="2.822"/><path d="M5.452 7.583l-5.337.039.058 8.793 2.515-.02-.039-6.911 2.208-.02c.519 0 .94.423.94.942l.04 5.97 2.514-.019-.038-5.97a2.831 2.831 0 0 0-2.86-2.804zm27.704 6.72l-1.632.02a.959.959 0 0 1-.883-.942l-.02-4.089 2.516-.02-.02-1.88-2.515.019-.019-3.149-2.515.02.02 3.148h-1.095l-1.401 1.9 2.515-.019.019 4.09c.019 1.555 1.286 2.822 2.841 2.803l2.208-.02v-1.056l-.02-.825z" fill="#0445A5"/><path fill="#0445A5" d="M26.36 7.449l-2.823.02-1.862 2.514-1.9-2.496-2.842.02 3.34 4.377-3.282 4.415 2.841-.019 1.862-2.515 1.9 2.496 2.823-.02-3.321-4.376zm17.432-.134l-2.15 5.625-2.247-5.587-2.515.02 3.533 8.773 2.496-.02 3.398-8.811zm-10.033.095l2.515-.018.059 8.793-2.515.017zm-.019-3.15l2.516-.017.017 2.515-2.515.017z"/><path d="M13.362 14.437c-.787 0-1.478-.633-1.766-1.555l6.047-.038c.058-.307.096-.615.096-.941a4.412 4.412 0 0 0-4.434-4.377 4.412 4.412 0 0 0-4.378 4.435 4.412 4.412 0 0 0 4.435 4.377l2.995-.02 1.402-1.9-4.397.02zm-.038-5.03c.787 0 1.478.634 1.766 1.555l-3.494.02c.269-.903.94-1.556 1.728-1.575zm38.205-2.131l-4.589.039-.73 1.881 4.685-.038c.518 0 .94.422.94.94v.634l-3.762.02c-1.402.095-2.515 1.266-2.496 2.687a2.686 2.686 0 0 0 2.534 2.65l6.278-.04-.038-5.97a2.798 2.798 0 0 0-2.822-2.803zm-2.803 5.376c.038 0 .096-.02.134-.02l3.014-.019.02 1.575h-1.056l-1.94.019c-.038 0-.096 0-.134-.02a.782.782 0 0 1-.633-.767.75.75 0 0 1 .595-.768z" fill="#0445A5"/></g></g><g fill-rule="nonzero"><path fill="#BCBC8A" d="M111.606 368.888H73.478v-36.4h38.128z"/><path d="M111.6 370.146H73.493a1.245 1.245 0 0 1-1.248-1.248v-36.4c0-.69.557-1.248 1.248-1.248h38.128c.691 0 1.248.557 1.248 1.248v36.4c-.02.672-.576 1.248-1.267 1.248zm-36.86-2.495h35.632v-33.905H74.74v33.905z" fill="#0445A5"/><path fill="#DDDCB1" d="M111.615 339.065H73.583v-6.566h38.032z"/><path d="M111.6 340.312H73.57a1.245 1.245 0 0 1-1.248-1.248v-6.566c0-.69.556-1.248 1.248-1.248h38.03c.69 0 1.248.557 1.248 1.248v6.566c0 .691-.557 1.248-1.248 1.248zm-36.784-2.496h35.537v-4.07H74.816v4.07z" fill="#415469"/><path fill="#DDDCB1" d="M111.615 368.9H73.583v-6.567h38.032z"/><path d="M111.6 370.146H73.57a1.245 1.245 0 0 1-1.248-1.248v-6.565c0-.692.556-1.248 1.248-1.248h38.03c.69 0 1.248.556 1.248 1.248v6.565c0 .692-.557 1.248-1.248 1.248zm-36.784-2.495h35.537v-4.07H74.816v4.07z" fill="#415469"/><path fill="#DDDCB1" d="M111.626 339.06v23.173h-6.566V339.06z"/><path d="M111.62 363.485h-6.566a1.245 1.245 0 0 1-1.248-1.248v-23.173c0-.691.557-1.248 1.248-1.248h6.566c.691 0 1.248.557 1.248 1.248v23.173c0 .69-.557 1.248-1.248 1.248zm-5.318-2.496h4.07v-20.677h-4.07v20.677z" fill="#415469"/><path fill="#DDDCB1" d="M80.248 339.068v23.173h-6.566v-23.173z"/><path d="M80.23 363.485h-6.565a1.245 1.245 0 0 1-1.248-1.248v-23.173c0-.326.134-.653.364-.883.23-.23.557-.365.884-.365h6.565c.692 0 1.248.557 1.248 1.248v23.173c0 .69-.556 1.248-1.248 1.248zm-5.318-2.496h4.07v-20.677h-4.07v20.677z" fill="#415469"/><path d="M105.13 343.48l-18.814 18.814h-6.028v-5.03l18.162-18.162h6.662c-.02 0 .153 4.378.019 4.378z" fill="#DDDCB1"/><path d="M86.297 363.542H80.27a1.245 1.245 0 0 1-1.248-1.248v-5.03c0-.326.134-.653.365-.883l18.161-18.162c.23-.23.557-.364.884-.364h6.661c.672 0 1.23.537 1.248 1.19.192 4.761.115 4.838-.307 5.28l-.057.057L87.2 363.158a1.25 1.25 0 0 1-.902.384zm-4.78-2.496h4.262l18.142-18.142c0-.519-.019-1.517-.038-2.554h-4.934l-17.413 17.413v3.283h-.02zm23.614-18.814c-.211 0-.384.057-.557.134.173-.096.365-.134.557-.134z" fill="#415469"/></g><g transform="translate(375.33 185.958)" fill-rule="nonzero"><path fill="#0445A5" d="M59.669 45.154l-17.797.844-11.135 16.377-12.594-15.263-17.797.825 22.059 26.705-19.468 28.664 17.797-.826L31.85 86.104l12.614 15.263 17.797-.845L40.2 73.817z"/><path d="M2.765 103.42l19.524-28.758L.154 47.86l18.027-.845L30.737 62.22l11.077-16.3 18.028-.844-19.525 28.74 22.136 26.801-18.028.845L31.87 86.257l-11.077 16.3-18.027.864zM.538 48.034l21.982 26.61-.039.057L3.13 103.19l17.548-.825L31.85 85.931l12.652 15.32 17.547-.825-21.982-26.61.039-.057 19.352-28.49-17.548.825-11.173 16.434-12.652-15.32-17.547.825z" fill="#0445A5"/><circle fill="#F8B400" transform="rotate(-62.187 28.977 24.783)" cx="28.977" cy="24.783" r="17.817"/></g><g transform="translate(529.302 112.661)" fill-rule="nonzero"><path fill="#0445A5" d="M26.916 20.077l-7.967.115-5.222 7.18-5.433-7.026-7.987.115L9.81 32.748.672 45.323l7.987-.135 5.221-7.16 5.434 7.007 7.986-.115-9.503-12.287z"/><path d="M.48 45.419l9.196-12.652-9.58-12.383 8.217-.115.038.038 5.357 6.912 5.164-7.104L27.09 20l-9.196 12.652 9.58 12.383-8.217.115-5.376-6.95-5.164 7.104-8.236.115zM.5 20.557l9.426 12.19-9.062 12.46 7.737-.115 5.26-7.237 5.472 7.084 7.737-.115-9.427-12.191 9.062-12.46-7.737.115-5.26 7.238-5.472-7.084-7.737.115z" fill="#0445A5"/><circle fill="#F8B400" transform="rotate(-68.901 13.475 10.486)" cx="13.475" cy="10.486" r="7.987"/></g></g><g><animateTransform attributeName="transform" type="translate" from="-231" to="769" dur="90s" begin="-20s" repeatCount="indefinite"/><path d="M131.164 133.737c-9.235 0-16.952 6.585-18.68 15.32a14.052 14.052 0 0 0-11.078-5.395c-7.775 0-14.091 6.297-14.091 14.092 0 7.065 5.202 12.92 11.98 13.938v.153h31.255v-.019c.21 0 .422.02.614.02 10.52 0 19.045-8.525 19.045-19.045 0-10.521-8.524-19.064-19.045-19.064z" fill="#FFF"/><path d="M130.55 173.074H99.314c-.288 0-.557-.096-.768-.269a15.285 15.285 0 0 1-8.697-5.01 15.34 15.34 0 0 1-3.763-10.06c0-8.448 6.873-15.34 15.34-15.34 3.935 0 7.64 1.478 10.443 4.108 2.669-8.255 10.444-14.034 19.314-14.034 11.193 0 20.293 9.1 20.293 20.293s-9.1 20.293-20.293 20.293h-.5c-.057.02-.095.02-.133.02zm-30.641-2.496h30.468c.057 0 .134-.019.211-.019.192 0 .384.02.576.02 9.81 0 17.797-7.987 17.797-17.798 0-9.81-7.987-17.797-17.797-17.797-8.467 0-15.8 6.01-17.451 14.303a1.26 1.26 0 0 1-.941.98c-.48.115-.98-.058-1.267-.442a12.77 12.77 0 0 0-10.099-4.915c-7.084 0-12.843 5.76-12.843 12.844 0 6.316 4.703 11.768 10.923 12.69.154.02.308.077.423.134z" fill="#415469"/><g transform="translate(96.184 122.678)"><circle fill="#FFF" cx="7.257" cy="7.18" r="5.856"/><path d="M7.257 14.284c-3.916 0-7.103-3.187-7.103-7.104C.154 3.264 3.34.077 7.257.077S14.36 3.264 14.36 7.18c0 3.917-3.186 7.104-7.103 7.104zm0-11.711A4.621 4.621 0 0 0 2.649 7.18a4.621 4.621 0 0 0 4.608 4.608 4.621 4.621 0 0 0 4.608-4.608 4.609 4.609 0 0 0-4.608-4.607z" fill="#415469"/></g></g><g><animateTransform attributeName="transform" type="translate" from="-398" to="602" dur="120s" begin="-48s" repeatCount="indefinite"/><path d="M298.92 69.498h-9.83c.077-.71.116-1.44.116-2.169 0-10.52-8.524-19.045-19.045-19.045-9.235 0-16.952 6.585-18.68 15.32a14.052 14.052 0 0 0-11.078-5.394c-7.775 0-14.092 6.297-14.092 14.091 0 7.065 5.203 12.921 11.98 13.939v.153h22.29v.02h38.34a8.447 8.447 0 0 0 8.446-8.448c0-4.684-3.782-8.467-8.447-8.467z" fill="#FFF"/><path d="M298.92 87.641h-38.3c-.058 0-.116 0-.154-.02H238.33c-.288 0-.557-.095-.768-.268a15.285 15.285 0 0 1-8.697-5.01 15.34 15.34 0 0 1-3.763-10.06c0-8.448 6.873-15.34 15.34-15.34 3.935 0 7.64 1.478 10.444 4.108 2.668-8.255 10.443-14.034 19.313-14.034 11.193 0 20.293 9.1 20.293 20.293 0 .307 0 .614-.02.921h8.467c5.337 0 9.696 4.358 9.696 9.696 0 5.337-4.378 9.714-9.715 9.714zm-38.147-2.496h38.147c3.974 0 7.2-3.225 7.2-7.2a7.203 7.203 0 0 0-7.2-7.199h-9.83c-.364 0-.69-.153-.921-.422a1.284 1.284 0 0 1-.307-.98c.077-.671.115-1.362.115-2.015 0-9.81-7.987-17.797-17.797-17.797-8.467 0-15.8 6.01-17.451 14.303a1.26 1.26 0 0 1-.941.979c-.48.115-.98-.058-1.267-.442a12.77 12.77 0 0 0-10.099-4.914c-7.084 0-12.843 5.76-12.843 12.843 0 6.317 4.703 11.77 10.924 12.69.153.02.287.077.422.135h21.694c.058.02.115.02.154.02z" fill="#415469"/></g><g><animateTransform attributeName="transform" type="translate" from="-735" to="235" dur="100s" begin="-73s" repeatCount="indefinite"/><path d="M635.258 123.408c-8.812 0-16.165 6.278-17.816 14.61a13.416 13.416 0 0 0-10.579-5.145c-7.43 0-13.438 6.009-13.438 13.438 0 6.74 4.972 12.326 11.442 13.286v.153h29.796v-.019c.192 0 .403.02.595.02 10.04 0 18.162-8.14 18.162-18.162 0-10.022-8.14-18.181-18.162-18.181z" fill="#FFF"/><path d="M634.663 160.998h-29.796a1.21 1.21 0 0 1-.768-.268 14.69 14.69 0 0 1-8.332-4.8 14.653 14.653 0 0 1-3.59-9.638c0-8.101 6.585-14.687 14.686-14.687 3.744 0 7.257 1.383 9.945 3.879 2.592-7.853 10.003-13.343 18.45-13.343 10.713 0 19.41 8.716 19.41 19.41 0 10.693-8.716 19.409-19.41 19.409h-.46c-.058.038-.097.038-.135.038zm-29.201-2.495h29.047c.058 0 .135-.02.192-.02.192 0 .365.02.557.02 9.33 0 16.914-7.584 16.914-16.914 0-9.33-7.584-16.914-16.914-16.914-8.044 0-15.032 5.721-16.587 13.612a1.26 1.26 0 0 1-.941.979c-.48.115-.98-.058-1.267-.442a12.125 12.125 0 0 0-9.58-4.665c-6.72 0-12.191 5.471-12.191 12.19 0 5.99 4.454 11.174 10.367 12.058.134-.02.269.038.403.096z" fill="#415469"/></g></svg>