<svg id="Layer_1" xmlns="http://www.w3.org/2000/svg" viewBox="0 0 370.7 257.8"><style>.nx-waymark-st3{fill:#0445a5}.nx-waymark-st4{fill:#f8b400}</style><g id="Layer_2_1_"><g id="Layer_2-2"><path fill="none" stroke="#0445a5" stroke-width="3" stroke-linecap="round" stroke-miterlimit="10" d="M25.6 205h322"/><path d="M214.5 257.3h-25.9c-.4 0-.7-.2-.9-.5l-20.5-28.3c-.3-.4-.3-1.1.1-1.4.2-.2.5-.3.8-.2H194c.4 0 .7.2.9.5l20.6 28.3c.4.4.3 1.1-.1 1.4-.3.2-.6.3-.9.2z" fill="#e1eef6"/><path fill="#5db0e1" d="M167.3 1.5h26.6v225h-26.6z"/><path class="nx-waymark-st3" d="M193.9 228h-26.6c-.8 0-1.5-.7-1.5-1.5V1.5c0-.8.7-1.5 1.5-1.5h26.6c.8 0 1.5.7 1.5 1.5v225c0 .8-.6 1.5-1.5 1.5zm-25.1-3h23.6V3h-23.6v222z"/><path class="nx-waymark-st3" d="M143.3 54.2c-.7 0-1.3-.5-1.5-1.2l-5.1-28.4c-.1-.8.4-1.6 1.2-1.7l91.3-16.4c.4-.1.9 0 1.2.3l15.1 12c.6.5.8 1.3.4 2l-10 16.5c-.2.4-.6.6-1 .7l-91.3 16.3-.3-.1zM140 25.4l4.6 25.5 89.1-16 9-14.8-13.6-10.6L140 25.4z"/><path class="nx-waymark-st4" d="M244.7 19.9l-15.2-12-91.2 16.3 5 28.5 91.3-16.4z"/><path class="nx-waymark-st3" d="M143.3 54.2c-.7 0-1.3-.5-1.5-1.2l-5.1-28.4c-.1-.8.4-1.6 1.2-1.7l91.3-16.4c.4-.1.9 0 1.2.3l15.1 12c.6.5.8 1.3.4 2l-10 16.5c-.2.4-.6.6-1 .7l-91.3 16.3-.3-.1zM140 25.4l4.6 25.5 89.1-16 9-14.8-13.6-10.6L140 25.4z"/><path class="nx-waymark-st3" d="M149.7 33.4c-.8.1-1.6-.5-1.6-1.4s.5-1.6 1.4-1.6l73.3-13.1c.8-.1 1.6.4 1.8 1.2.1.8-.4 1.6-1.2 1.8l-73.3 13.1h-.4zm1.7 9.8c-.8.1-1.6-.5-1.6-1.4-.1-.8.5-1.6 1.4-1.6l38.2-6.8c.8-.2 1.6.4 1.7 1.2.1.8-.4 1.6-1.2 1.7l-38.2 6.8-.3.1zm79 62.9h-.2l-91.6-14.4c-.4-.1-.8-.3-1-.7l-10.4-16.2c-.4-.6-.3-1.5.3-2l14.9-12.3c.3-.3.8-.4 1.2-.3l91.6 14.4c.4.1.8.3 1 .6.2.3.3.7.3 1.1l-4.5 28.5c-.1.7-.8 1.3-1.6 1.3zm-90.7-17.2l89.5 14 4-25.6-89.5-14-13.3 11 9.3 14.6z"/><path class="nx-waymark-st4" d="M128.4 74l14.9-12.3 91.6 14.4-4.5 28.5-91.6-14.4z"/><path class="nx-waymark-st3" d="M230.4 106.1h-.2l-91.6-14.4c-.4-.1-.8-.3-1-.7l-10.4-16.2c-.4-.6-.3-1.5.3-2l14.9-12.3c.3-.3.8-.4 1.2-.3l91.6 14.4c.4.1.8.3 1 .6.2.3.3.7.3 1.1l-4.5 28.5c-.1.7-.8 1.3-1.6 1.3zm-90.7-17.2l89.5 14 4-25.6-89.5-14-13.3 11 9.3 14.6z"/><path class="nx-waymark-st3" d="M223.7 85.5h-.2L149.8 74c-.8-.1-1.4-.9-1.2-1.7.1-.8.8-1.4 1.6-1.3h.1l73.6 11.5c.8.1 1.4.9 1.3 1.7-.2.8-.8 1.3-1.5 1.3zm-1.6 9.8h-.2l-38.3-6c-.8-.1-1.4-.9-1.3-1.7.1-.8.9-1.4 1.7-1.3l38.3 6c.8.1 1.4.8 1.4 1.6s-.7 1.4-1.6 1.4zm-78.5 65.1c-.7 0-1.3-.5-1.5-1.2l-5.4-28.4c-.2-.8.4-1.6 1.2-1.8l91.1-17.5c.4-.1.9 0 1.2.3l15.2 11.8c.6.5.8 1.3.4 1.9l-9.8 16.6c-.2.4-.6.6-1 .7l-91.1 17.5-.3.1zm-3.6-28.6l4.9 25.4 88.9-17.1 8.8-14.9-13.7-10.6-88.9 17.2z"/><path class="nx-waymark-st4" d="M244.5 124.9l-15.2-11.8-91.1 17.5 5.4 28.3 91.1-17.4z"/><path class="nx-waymark-st3" d="M143.6 160.4c-.7 0-1.3-.5-1.5-1.2l-5.4-28.4c-.2-.8.4-1.6 1.2-1.8l91.1-17.5c.4-.1.9 0 1.2.3l15.2 11.8c.6.5.8 1.3.4 1.9l-9.8 16.6c-.2.4-.6.6-1 .7l-91.1 17.5-.3.1zm-3.6-28.6l4.9 25.4 88.9-17.1 8.8-14.9-13.7-10.6-88.9 17.2z"/><path class="nx-waymark-st3" d="M149.7 139.6c-.8.1-1.6-.5-1.6-1.4-.1-.8.5-1.6 1.4-1.6l73.2-14c.8-.2 1.6.4 1.8 1.2s-.4 1.6-1.2 1.8l-73.2 14h-.4zm1.9 9.7c-.8.1-1.6-.5-1.6-1.4-.1-.8.5-1.6 1.4-1.6l38.1-7.3c.8-.2 1.6.4 1.8 1.2.2.8-.4 1.6-1.2 1.8l-38.1 7.3h-.4z"/></g></g></svg>